<svg xmlns="http://www.w3.org/2000/svg" xmlns:xlink="http://www.w3.org/1999/xlink" viewBox="0 0 320 330.48"><defs><style>.cls-1{fill:#fff;}.cls-2{fill:none;}.cls-3{fill:url(#linear-gradient);}.cls-4{fill:#4070b7;}.cls-5{fill:url(#linear-gradient-2);}.cls-6{fill:url(#linear-gradient-3);}.cls-7{fill:url(#linear-gradient-4);}.cls-8{fill:url(#linear-gradient-5);}.cls-9{fill:url(#linear-gradient-6);}.cls-10{fill:url(#radial-gradient);}.cls-11{fill:url(#radial-gradient-2);}.cls-12{fill:url(#radial-gradient-3);}.cls-13{fill:url(#radial-gradient-4);}.cls-14{fill:url(#radial-gradient-5);}.cls-15{fill:url(#radial-gradient-6);}.cls-16{fill:url(#radial-gradient-7);}.cls-17{fill:url(#radial-gradient-8);}.cls-18{fill:url(#linear-gradient-7);}</style><linearGradient id="linear-gradient" x1="89.19" y1="265.52" x2="230.84" y2="265.52" gradientTransform="matrix(1, 0, 0, -1, 0, 405.42)" gradientUnits="userSpaceOnUse"><stop offset="0" stop-color="#d93327"/><stop offset="1" stop-color="#ea4535"/></linearGradient><linearGradient id="linear-gradient-2" x1="148.85" y1="154.14" x2="219.68" y2="276.82" gradientTransform="matrix(1, 0, 0, -1, 0, 405.42)" gradientUnits="userSpaceOnUse"><stop offset="0" stop-color="#fcca35"/><stop offset="1" stop-color="#f9bc15"/></linearGradient><linearGradient id="linear-gradient-3" x1="168.87" y1="158.15" x2="98.04" y2="280.83" gradientTransform="matrix(1, 0, 0, -1, 0, 405.42)" gradientUnits="userSpaceOnUse"><stop offset="0" stop-color="#228e45"/><stop offset="1" stop-color="#36a852"/></linearGradient><linearGradient id="linear-gradient-4" x1="241.3" y1="404.15" x2="-29.52" y2="142.85" gradientTransform="matrix(0.98, 0, 0, -0.98, -1.12, 394.9)" gradientUnits="userSpaceOnUse"><stop offset="0.05" stop-color="#fcef58"/><stop offset="0.11" stop-color="#ffe847"/><stop offset="0.23" stop-color="#ffc931"/><stop offset="0.37" stop-color="#f8981d"/><stop offset="0.4" stop-color="#f68b22"/><stop offset="0.46" stop-color="#f26831"/><stop offset="0.53" stop-color="#ef3e4c"/><stop offset="0.7" stop-color="#e31887"/></linearGradient><linearGradient id="linear-gradient-5" x1="308.03" y1="334.98" x2="37.21" y2="73.69" xlink:href="#linear-gradient-4"/><linearGradient id="linear-gradient-6" x1="293.55" y1="349.99" x2="22.73" y2="88.7" xlink:href="#linear-gradient-4"/><radialGradient id="radial-gradient" cx="-7692.18" cy="8888.19" r="340.09" gradientTransform="matrix(0.98, 0, 0, -0.98, 7830.5, 8765.34)" gradientUnits="userSpaceOnUse"><stop offset="0.13" stop-color="#fdbd50"/><stop offset="0.19" stop-color="#fbac33"/><stop offset="0.25" stop-color="#f99c20"/><stop offset="0.28" stop-color="#f8981d"/><stop offset="0.4" stop-color="#f15940"/><stop offset="0.47" stop-color="#ef3e54"/><stop offset="0.71" stop-color="#ed1f6d"/><stop offset="0.78" stop-color="#e91178"/><stop offset="0.86" stop-color="#e40780"/></radialGradient><radialGradient id="radial-gradient-2" cx="-7818.45" cy="8749.3" r="340.09" gradientTransform="matrix(0.98, 0, 0, -0.98, 7830.5, 8765.34)" gradientUnits="userSpaceOnUse"><stop offset="0.3" stop-color="#971b1e"/><stop offset="0.35" stop-color="#b21f28" stop-opacity="0.74"/><stop offset="0.43" stop-color="#dc2a3e" stop-opacity="0.34"/><stop offset="0.5" stop-color="#ef384e" stop-opacity="0.09"/><stop offset="0.53" stop-color="#ef3e54" stop-opacity="0"/></radialGradient><radialGradient id="radial-gradient-3" cx="-7776.36" cy="8963.95" r="246.35" gradientTransform="matrix(0.98, 0, 0, -0.98, 7830.5, 8765.34)" gradientUnits="userSpaceOnUse"><stop offset="0.13" stop-color="#fcef58"/><stop offset="0.25" stop-color="#fddb40"/><stop offset="0.51" stop-color="#f99c1c"/><stop offset="0.53" stop-color="#f8981d"/></radialGradient><radialGradient id="radial-gradient-4" cx="-7822.66" cy="8900.82" r="116.51" gradientTransform="matrix(0.98, 0, 0, -0.98, 7830.5, 8765.34)" gradientUnits="userSpaceOnUse"><stop offset="0" stop-color="#fee123"/><stop offset="0.12" stop-color="#fedb28"/><stop offset="0.29" stop-color="#ffc92c"/><stop offset="0.5" stop-color="#faa933"/><stop offset="0.73" stop-color="#f47d3a"/><stop offset="0.79" stop-color="#f3723f"/></radialGradient><radialGradient id="radial-gradient-5" cx="-7730.06" cy="8976.58" r="497.08" gradientTransform="matrix(0.98, 0, 0, -0.98, 7830.5, 8765.34)" gradientUnits="userSpaceOnUse"><stop offset="0.11" stop-color="#fcef58"/><stop offset="0.46" stop-color="#f8981d"/><stop offset="0.62" stop-color="#f1593b"/><stop offset="0.72" stop-color="#ef3e4c"/><stop offset="0.9" stop-color="#e31887"/></radialGradient><radialGradient id="radial-gradient-6" cx="-7734.58" cy="9393.04" r="364.08" gradientTransform="matrix(0.1, 0.98, 0.64, -0.07, -5026.52, 8171.25)" gradientUnits="userSpaceOnUse"><stop offset="0" stop-color="#fcef58"/><stop offset="0.06" stop-color="#ffe847"/><stop offset="0.17" stop-color="#ffc931"/><stop offset="0.3" stop-color="#f8981d"/><stop offset="0.36" stop-color="#f68b22"/><stop offset="0.46" stop-color="#f26831"/><stop offset="0.57" stop-color="#ef3e4c"/><stop offset="0.74" stop-color="#e31887"/></radialGradient><radialGradient id="radial-gradient-7" cx="-7822.66" cy="8858.73" r="310.29" gradientTransform="matrix(0.98, 0, 0, -0.98, 7830.5, 8765.34)" gradientUnits="userSpaceOnUse"><stop offset="0.14" stop-color="#fcef58"/><stop offset="0.48" stop-color="#f8981d"/><stop offset="0.59" stop-color="#f1593b"/><stop offset="0.66" stop-color="#ef3e4c"/><stop offset="0.9" stop-color="#e31887"/></radialGradient><radialGradient id="radial-gradient-8" cx="-7742.69" cy="8841.89" r="339.62" gradientTransform="matrix(0.98, 0, 0, -0.98, 7830.5, 8765.34)" gradientUnits="userSpaceOnUse"><stop offset="0.09" stop-color="#fcef58"/><stop offset="0.23" stop-color="#fde143"/><stop offset="0.51" stop-color="#fbae22"/><stop offset="0.63" stop-color="#f8981d"/></radialGradient><linearGradient id="linear-gradient-7" x1="290.29" y1="351.35" x2="59.89" y2="120.91" gradientTransform="matrix(0.98, 0, 0, -0.98, -1.12, 394.9)" gradientUnits="userSpaceOnUse"><stop offset="0.17" stop-color="#fcef58" stop-opacity="0.8"/><stop offset="0.27" stop-color="#fcef58" stop-opacity="0.63"/><stop offset="0.49" stop-color="#fcef58" stop-opacity="0.22"/><stop offset="0.6" stop-color="#fcef58" stop-opacity="0"/></linearGradient></defs><g id="Layer_2" data-name="Layer 2"><g id="Layer_1-2" data-name="Layer 1"><circle class="cls-1" cx="160.02" cy="170.56" r="40.9"/><path class="cls-2" d="M89.18,211.47A81.79,81.79,0,1,0,119.12,99.74h0A81.79,81.79,0,0,0,89.18,211.47Zm106.25-61.34a40.89,40.89,0,1,1-55.86-15h0A40.88,40.88,0,0,1,195.43,150.13Z"/><path class="cls-3" d="M160,129.68h70.82a81.77,81.77,0,0,0-141.65,0L124.6,191h0A40.85,40.85,0,0,1,160,129.68Z"/><circle class="cls-4" cx="160.02" cy="170.58" r="32.38"/><path class="cls-5" d="M195.43,191,160,252.37a81.78,81.78,0,0,0,70.82-122.68H160v0A40.84,40.84,0,0,1,195.43,191Z"/><path class="cls-6" d="M124.6,191,89.19,129.7A81.77,81.77,0,0,0,160,252.37L195.44,191l0,0a40.84,40.84,0,0,1-70.81,0Z"/><polygon class="cls-2" points="292.52 119.34 292.55 119.36 292.52 119.19 292.52 119.34"/><path class="cls-2" d="M126,237.46l-.94-.46,1,.53Z"/><path class="cls-7" d="M154.75,89.09v0h0a80.2,80.2,0,0,0-44.1,17l0,0A80.13,80.13,0,0,1,154.75,89.09Z"/><path class="cls-8" d="M125.05,237l-1.28-.63Z"/><path class="cls-9" d="M308.38,110.94l0,0c-7-16.75-21.08-34.83-32.13-40.55A166.64,166.64,0,0,1,292.49,119l0,.27c-18.11-45.14-48.82-63.37-73.9-103-1.27-2-2.54-4-3.78-6.14-.7-1.21-1.27-2.3-1.76-3.3A29.49,29.49,0,0,1,210.69.51a.41.41,0,0,0-.37-.41.51.51,0,0,0-.3,0s-.05,0-.08,0l-.11.07.06-.11c-40.21,23.55-53.88,67.11-55.13,89,1.85-.13,3.69-.28,5.58-.28a80.82,80.82,0,0,1,70.18,41,55.28,55.28,0,0,0-38.63-9.38c57.63,28.81,42.17,128-37.69,124.28a71.29,71.29,0,0,1-20.84-4c-1.57-.59-3.13-1.23-4.7-1.92-.91-.41-1.81-.83-2.71-1.29C106.41,227.34,90.24,208.22,88.22,185c0,0,7.4-27.56,52.95-27.56,4.92,0,19-13.74,19.26-17.73v0c-.06-1.3-27.94-12.39-38.81-23.1-5.8-5.73-8.56-8.49-11-10.56h0a49.35,49.35,0,0,0-4.09-3.1,74.2,74.2,0,0,1-.45-39.15,118.67,118.67,0,0,0-38.56,29.8h-.07c-6.35-8-5.91-34.58-5.54-40.12a28,28,0,0,0-5.35,2.84A117,117,0,0,0,40.89,69.72a140.46,140.46,0,0,0-15,18v0h0A135.28,135.28,0,0,0,4.43,136.2l-.22,1.06c-.3,1.41-1.39,8.47-1.57,10,0,.12,0,.24,0,.36A152.9,152.9,0,0,0,0,169.7v.83a160.2,160.2,0,0,0,318.05,27.08c.27-2.06.49-4.11.73-6.19A164.86,164.86,0,0,0,308.38,110.94ZM123.77,236.37l1.28.63.94.46.11.07-1-.53Zm168.75-117v-.15l0,.17Z"/><path class="cls-10" d="M308.4,111c-7-16.75-21.08-34.83-32.13-40.55A166.64,166.64,0,0,1,292.49,119v.15l0,.17a145.05,145.05,0,0,1-5,108.12c-18.36,39.4-62.78,79.77-132.34,77.79C80.05,303.13,13.83,247.35,1.48,174.32-.78,162.8,1.48,157,2.61,147.6A119,119,0,0,0,0,169.7v.83a160.2,160.2,0,0,0,318.05,27.09c.27-2.07.49-4.11.73-6.2A164.7,164.7,0,0,0,308.42,111Z"/><path class="cls-11" d="M308.4,111c-7-16.75-21.08-34.83-32.13-40.55A166.64,166.64,0,0,1,292.49,119v.15l0,.17a145.05,145.05,0,0,1-5,108.12c-18.36,39.4-62.78,79.77-132.34,77.79C80.05,303.13,13.83,247.35,1.48,174.32-.78,162.8,1.48,157,2.61,147.6A119,119,0,0,0,0,169.7v.83a160.2,160.2,0,0,0,318.05,27.09c.27-2.07.49-4.11.73-6.2A164.7,164.7,0,0,0,308.42,111Z"/><path class="cls-12" d="M230.53,129.77l1,.73a87.74,87.74,0,0,0-14.88-19.4C166.84,61.29,203.6,3.14,209.8.16l.06-.09c-40.24,23.56-53.9,67.17-55.14,89,1.87-.13,3.72-.28,5.63-.28a80.82,80.82,0,0,1,70.18,41Z"/><path class="cls-13" d="M103.15,100.76c1.3.82,2.37,1.54,3.3,2.19A74.3,74.3,0,0,1,106,63.8,118.6,118.6,0,0,0,67.45,93.6C68.23,93.58,91.46,93.16,103.15,100.76Z"/><path class="cls-14" d="M1.45,174.33c12.36,73,78.57,128.83,153.71,130.94,69.56,2,114-38.42,132.34-77.79a145.05,145.05,0,0,0,5-108.12v-.16c0-.12,0-.19,0-.15l0,.27c5.68,37.1-13.19,73-42.7,97.38l-.09.2c-57.49,46.83-112.5,28.25-123.62,20.67-.78-.37-1.56-.76-2.33-1.16-33.52-16-47.37-46.54-44.39-72.75A41.13,41.13,0,0,1,41.44,139.8a60.43,60.43,0,0,1,58.9-2.37,79.77,79.77,0,0,0,60.13,2.37c-.06-1.31-27.94-12.4-38.81-23.11-5.8-5.72-8.56-8.48-11-10.55a46.8,46.8,0,0,0-4.14-3.13c-1-.65-2-1.36-3.3-2.2-11.69-7.59-34.92-7.18-35.69-7.16h-.08c-6.35-8-5.9-34.58-5.54-40.12a27.91,27.91,0,0,0-5.34,2.84A116.45,116.45,0,0,0,40.91,69.78a140.17,140.17,0,0,0-15,17.93v0A135.45,135.45,0,0,0,4.38,136.22c-.08.33-5.77,25.21-3,38.12Z"/><path class="cls-15" d="M216.64,111.09a86.85,86.85,0,0,1,14.88,19.43c.88.66,1.71,1.32,2.41,2,36.31,33.48,17.28,80.81,15.87,84.16,29.5-24.31,48.35-60.27,42.69-97.38-18.12-45.18-48.85-63.4-73.9-103-1.27-2-2.54-4-3.77-6.14-.71-1.21-1.28-2.3-1.77-3.3A29.49,29.49,0,0,1,210.66.43.4.4,0,0,0,210.3,0a.51.51,0,0,0-.3,0s-.06,0-.08.05-.08,0-.12.06c-6.19,2.94-42.94,61.13,6.86,110.89Z"/><path class="cls-16" d="M233.92,132.5c-.7-.64-1.52-1.3-2.4-2l-1-.73a55.35,55.35,0,0,0-38.62-9.38c57.62,28.81,42.16,128-37.69,124.29a71.35,71.35,0,0,1-20.85-4q-2.34-.88-4.7-1.93c-.9-.41-1.81-.83-2.7-1.29l.11.07c11.13,7.6,66.13,26.17,123.62-20.66l.09-.21c1.44-3.35,20.47-50.67-15.87-84.15Z"/><path class="cls-17" d="M88.23,185s7.39-27.55,52.94-27.55c4.93,0,19-13.75,19.27-17.73a79.8,79.8,0,0,1-60.14-2.37,60.43,60.43,0,0,0-58.9,2.37,41.14,41.14,0,0,0,37.95,23.87c-3,26.19,10.88,56.71,44.39,72.74.75.36,1.45.75,2.22,1.09C106.4,227.31,90.24,208.2,88.23,185Z"/><path class="cls-18" d="M308.4,111c-7-16.75-21.08-34.83-32.13-40.55A166.64,166.64,0,0,1,292.49,119l0,.27c-18.11-45.14-48.82-63.37-73.9-103-1.27-2-2.54-4-3.78-6.14-.7-1.21-1.27-2.3-1.76-3.3A29.49,29.49,0,0,1,210.69.51a.41.41,0,0,0-.37-.41.51.51,0,0,0-.3,0s-.05,0-.08,0l-.11.07.06-.11c-40.24,23.56-53.9,67.16-55.14,89,1.87-.13,3.72-.29,5.63-.29a80.85,80.85,0,0,1,70.18,41,55.25,55.25,0,0,0-38.62-9.38c57.62,28.81,42.16,128-37.69,124.29a71.24,71.24,0,0,1-20.84-4q-2.35-.87-4.71-1.92c-.9-.42-1.81-.83-2.7-1.29l.11.07c-.78-.37-1.55-.76-2.33-1.16.75.36,1.45.75,2.22,1.09-19.56-10.11-35.72-29.22-37.73-52.41,0,0,7.39-27.56,52.94-27.56,4.93,0,19-13.74,19.27-17.72-.06-1.3-27.94-12.4-38.81-23.11-5.81-5.72-8.57-8.48-11-10.55a48.16,48.16,0,0,0-4.13-3.13,74.24,74.24,0,0,1-.45-39.16,118.67,118.67,0,0,0-38.56,29.8h-.07c-6.35-8-5.91-34.58-5.54-40.12a28.56,28.56,0,0,0-5.35,2.84A116.45,116.45,0,0,0,40.9,69.75a139.87,139.87,0,0,0-15,18v0a135.44,135.44,0,0,0-21.5,48.53l-.21,1.06c-.3,1.4-1.65,8.56-1.85,10.1A188,188,0,0,0,0,169.73v.83a160.2,160.2,0,0,0,318.05,27.09c.26-2.07.48-4.11.72-6.2A164.7,164.7,0,0,0,308.39,111Zm-15.89,8.23,0,.17Z"/></g></g></svg>