<?xml version="1.0" encoding="UTF-8" standalone="no"?>
<!-- Created with Inkscape (http://www.inkscape.org/) -->

<svg
   version="1.1"
   id="svg2"
   width="512"
   height="512"
   viewBox="0 0 512 512"
   xmlns="http://www.w3.org/2000/svg"
   xmlns:svg="http://www.w3.org/2000/svg">
  <defs
     id="defs6" />
  <g
     id="g8">
    <path
       style="fill:#ffffff"
       d="m 118.54953,465.29082 c -25.6631,-3.39191 -45.99337,-21.43115 -52.901038,-46.93957 -1.64022,-6.05693 -1.7602,-15.87267 -1.7602,-144 0,-153.76659 -0.52415,-142.22977 7.177418,-157.97783 5.04269,-10.3112 16.04107,-21.307574 26.34475,-26.339904 14.98645,-7.319431 11.73961,-7.045819 88.29613,-7.440715 50.16538,-0.258764 70.35831,-0.03568 74.5,0.823034 18.23668,3.781101 22.13983,29.782555 5.81257,38.721335 -2.84807,1.55925 -9.54436,1.75925 -74.13088,2.21408 l -70.99999,0.5 -4.4613,2.5 c -4.97499,2.78786 -8.53356,7.41035 -10.05526,13.06152 -0.66546,2.47131 -0.92171,49.10407 -0.74788,136.09896 l 0.26444,132.33952 2.5,4.4613 c 2.75553,4.9173 7.33813,8.48263 12.88237,10.02267 4.96838,1.38008 263.26687,1.38008 268.23525,0 5.54424,-1.54004 10.12684,-5.10537 12.88237,-10.02267 l 2.5,-4.4613 0.5,-71 c 0.45483,-64.58652 0.65483,-71.28281 2.21408,-74.13088 8.93878,-16.32726 34.94023,-12.42411 38.72134,5.81257 0.85872,4.14169 1.0818,24.33462 0.82303,74.5 -0.39537,76.64928 -0.12545,73.47168 -7.50224,88.31831 -5.10781,10.28006 -15.97615,21.1484 -26.25621,26.25621 -15.61069,7.75643 -3.67945,7.18598 -154,7.36288 -73.975,0.0871 -137.35243,-0.21873 -140.83875,-0.67952 z M 246.26791,292.55703 c -9.56508,-4.99686 -13.91416,-15.44846 -10.38787,-24.9639 1.51925,-4.09961 11.11021,-14.11394 70.80956,-73.93534 l 69.0523,-69.19347 -21.50337,-0.30653 -21.50336,-0.30654 -4.15369,-2.75112 c -5.65248,-3.7438 -8.4432,-9.45849 -8.4432,-17.28952 0,-10.751274 5.74142,-18.326714 15.47131,-20.413398 6.54628,-1.403926 89.0111,-1.403926 95.55738,0 5.79586,1.24299 11.24414,5.442824 13.84091,10.669354 1.74095,3.50401 1.90312,7.101134 2.18675,48.504034 0.32972,48.13159 -0.0888,53.84001 -4.35744,59.43652 -8.13089,10.66015 -26.88326,10.19456 -34.19779,-0.84907 l -2.75112,-4.15369 -0.30659,-21.51014 -0.30659,-21.51014 -68.69341,68.63782 c -71.92389,71.86569 -72.80782,72.65591 -81.32922,72.70739 -2.07477,0.0125 -5.93229,-1.17774 -8.98456,-2.77226 z"
       id="path172" />
  </g>
</svg>
