<svg xmlns="http://www.w3.org/2000/svg" viewBox="0 0 383.5 383.56"><defs><style>.cls-1{fill:#fff;}</style></defs><g id="Layer_2" data-name="Layer 2"><g id="Layer_1-2" data-name="Layer 1"><path class="cls-1" d="M55.39,0c11.16,2.83,20.48,8.41,26.8,18.29,14.7,23,3.68,52.92-22.48,61.22-1.91.61-4.18.55-4.13,3.74.06,4.66,0,4.82,4.69,4.82,8.23,0,16.47,0,24.7,0,5.06,0,8.67,3.41,8.55,7.88s-3.59,7.54-8.5,7.57c-8.48,0-17,.09-25.45,0-2.76,0-4,.55-4,3.7q.18,36.49,0,73c0,3.51,1.61,3.74,4.34,3.73q47.34-.07,94.68,0c5.82,0,9,3,8.82,8.2a7.31,7.31,0,0,1-6.74,7.21c-1.6.16-3.24.11-4.86.11H60.87c-5.22,0-5.22,0-5.22,5.38,0,4,.08,8,0,12-.06,2.27.83,3.1,3.08,3.06,5.49-.09,11,0,16.47,0,46.28,0,92.56.06,138.84-.12A25,25,0,0,0,225,217c4.94-2.57,6.72-7.6,6.74-13,.07-28.19.12-56.39,0-84.58-.05-9.84-6.45-15.81-16.55-15.84q-33.3-.09-66.61,0c-3.49,0-6.06-1.26-7.65-4.33a7.28,7.28,0,0,1,.53-7.79c1.76-2.65,4.33-3.43,7.43-3.42,20.83.06,41.67,0,62.5.07,4.46,0,9.08-.14,13.36.9a29.49,29.49,0,0,1,22.51,29c0,10.6.14,21.21-.06,31.81-.07,3.38,1.09,4.19,4.3,4.17,22.7-.12,45.41,0,68.11-.1,10.25,0,17.47,4.61,21.68,13.69s2.3,18.62-5,26.12c-8.91,9.09-17.88,18.11-26.8,27.18-4.91,5-4.88,8.36.07,13.39,9.11,9.24,18.34,18.35,27.31,27.73a23.14,23.14,0,0,1-11.4,38.66,27,27,0,0,1-6.31.47q-65.12,0-130.23,0c-19.58,0-32.31-12.58-32.49-32.19-.09-9.6-.16-19.21,0-28.81.08-3.63-.77-5-4.73-5q-45.84.24-91.69,0c-3.4,0-4.47.89-4.46,4.39q.18,61.94,0,123.87c0,3.62,1,4.61,4.63,4.61Q176.77,368,293.35,368q40.78,0,81.58,0c5.67,0,8.9,3.27,8.55,8.45a7.4,7.4,0,0,1-6.63,6.95,31.49,31.49,0,0,1-3.37.06q-181.88,0-363.75.06c-4.23,0-7.62-.89-9.73-4.8v-6c2-3.52,4.92-4.89,9-4.8,8.48.19,17,.06,25.45.06,5.73,0,5.74,0,5.74-5.59q0-138.28.08-276.57c0-3.83-.91-5.52-4.81-6.74A40.56,40.56,0,0,1,13,19.25C19.33,8.82,28.86,3,40.42,0ZM253.26,285.68h64c4,0,7.76-.51,9.64-4.86s-.61-7.07-3.34-9.81Q311.26,258.68,299,246.32c-12.16-12.25-12.15-25.31.05-37.59,8.52-8.58,17.08-17.13,25.55-25.77,3.85-3.91,4.09-8.64.24-11.35a13.44,13.44,0,0,0-7.32-2.09c-22.07-.16-44.14,0-66.21-.17-3.46,0-4.16,1.23-4.11,4.36.16,10.6.09,21.2,0,31.8a29.72,29.72,0,0,1-29.67,29.77c-13.72.05-27.44.09-41.16,0-3,0-4.15.81-4.1,4,.18,9.6.45,19.23,0,28.8-.52,10.13,5.79,17.88,17.75,17.74C211.11,285.51,232.18,285.69,253.26,285.68ZM73,40.61c-.67-13.94-9.92-24.93-24.93-25.13C34.21,15.3,23.16,25.22,23,40.23c-.18,13.86,9.69,24.93,24.75,25.13C61.65,65.54,72,55.6,73,40.61Z"/><path class="cls-1" d="M182.36,199.36a7.85,7.85,0,0,1-8-7.61,8,8,0,0,1,8.2-7.84,7.76,7.76,0,0,1,7.77,7.83A7.63,7.63,0,0,1,182.36,199.36Z"/><path class="cls-1" d="M118.41,103.54a7.73,7.73,0,1,1,.21-15.45,7.73,7.73,0,1,1-.21,15.45Z"/></g></g></svg>