<?xml version="1.0" encoding="UTF-8" standalone="no" ?>
<!DOCTYPE svg PUBLIC "-//W3C//DTD SVG 1.1//EN" "http://www.w3.org/Graphics/SVG/1.1/DTD/svg11.dtd">
<svg xmlns="http://www.w3.org/2000/svg" xmlns:xlink="http://www.w3.org/1999/xlink" version="1.1" width="1080" height="1080" viewBox="0 0 1080 1080" xml:space="preserve">
<desc>Created with Fabric.js 5.2.4</desc>
<defs>
</defs>
<rect x="0" y="0" width="100%" height="100%" fill="transparent"></rect>
<g transform="matrix(1 0 0 1 540 540)" id="5be1f14e-1210-494e-a819-06d9c7869ddc"  >
<rect style="stroke: none; stroke-width: 1; stroke-dasharray: none; stroke-linecap: butt; stroke-dashoffset: 0; stroke-linejoin: miter; stroke-miterlimit: 4; fill: rgb(255,255,255); fill-rule: nonzero; opacity: 1; visibility: hidden;" vector-effect="non-scaling-stroke"  x="-540" y="-540" rx="0" ry="0" width="1080" height="1080" />
</g>
<g transform="matrix(1 0 0 1 540 540)" id="9668a014-1f69-4571-acb5-624b1d0a3eb0"  >
</g>
<g transform="matrix(2.1 0 0 2.1 555.46 647.6)"  >
<polygon style="stroke: none; stroke-width: 1; stroke-dasharray: none; stroke-linecap: butt; stroke-dashoffset: 0; stroke-linejoin: miter; stroke-miterlimit: 4; fill: rgb(38,77,228); fill-rule: nonzero; opacity: 1;" vector-effect="non-scaling-stroke"  points="181.37,-205.69 148.32,164.51 -0.22,205.69 -148.36,164.57 -181.37,-205.69 " />
</g>
<g transform="matrix(2.1 0 0 2.1 709.78 642.61)"  >
<polygon style="stroke: none; stroke-width: 1; stroke-dasharray: none; stroke-linecap: butt; stroke-dashoffset: 0; stroke-linejoin: miter; stroke-miterlimit: 4; fill: rgb(41,101,241); fill-rule: nonzero; opacity: 1;" vector-effect="non-scaling-stroke"  points="45.89,141.55 74.13,-174.81 -74.13,-174.81 -74.13,174.81 " />
</g>
<g transform="matrix(2.1 0 0 2.1 444.1 610.7)"  >
<polygon style="stroke: none; stroke-width: 1; stroke-dasharray: none; stroke-linecap: butt; stroke-dashoffset: 0; stroke-linejoin: miter; stroke-miterlimit: 4; fill: rgb(235,235,235); fill-rule: nonzero; opacity: 1;" vector-effect="non-scaling-stroke"  points="-52.84,-22.7 -48.78,22.7 52.84,22.7 52.84,-22.7 " />
</g>
<g transform="matrix(2.1 0 0 2.1 435.59 418.51)"  >
<polygon style="stroke: none; stroke-width: 1; stroke-dasharray: none; stroke-linecap: butt; stroke-dashoffset: 0; stroke-linejoin: miter; stroke-miterlimit: 4; fill: rgb(235,235,235); fill-rule: nonzero; opacity: 1;" vector-effect="non-scaling-stroke"  points="56.94,-22.71 56.78,-22.71 -56.94,-22.71 -52.81,22.71 56.94,22.71 " />
</g>
<g transform="matrix(2.1 0 0 2.1 450.47 807.37)"  >
<polygon style="stroke: none; stroke-width: 1; stroke-dasharray: none; stroke-linecap: butt; stroke-dashoffset: 0; stroke-linejoin: miter; stroke-miterlimit: 4; fill: rgb(235,235,235); fill-rule: nonzero; opacity: 1;" vector-effect="non-scaling-stroke"  points="49.8,48.5 49.8,1.25 49.6,1.31 -0.97,-12.34 -4.21,-48.56 -28.78,-48.56 -49.79,-48.56 -43.43,22.74 49.59,48.56 " />
</g>
<g transform="matrix(2.1 0 0 2.1 411.21 74.57)"  >
<path style="stroke: none; stroke-width: 1; stroke-dasharray: none; stroke-linecap: butt; stroke-dashoffset: 0; stroke-linejoin: miter; stroke-miterlimit: 4; fill: rgb(255,255,255); fill-rule: nonzero; opacity: 1;" vector-effect="non-scaling-stroke"  transform=" translate(-187.5, -34.5)" d="M 160 0 L 215 0 L 215 23 L 183 23 L 183 46 L 215 46 L 215 69 L 160 69 z" stroke-linecap="round" />
</g>
<g transform="matrix(2.1 0 0 2.1 549.22 75.61)"  >
<path style="stroke: none; stroke-width: 1; stroke-dasharray: none; stroke-linecap: butt; stroke-dashoffset: 0; stroke-linejoin: miter; stroke-miterlimit: 4; fill: rgb(255,255,255); fill-rule: nonzero; opacity: 1;" vector-effect="non-scaling-stroke"  transform=" translate(-253.5, -35)" d="M 226 0 L 281 0 L 281 20 L 249 20 L 249 24 L 281 24 L 281 70 L 226 70 L 226 49 L 258 49 L 258 45 L 226 45 z" stroke-linecap="round" />
</g>
<g transform="matrix(2.1 0 0 2.1 687.24 75.61)"  >
<path style="stroke: none; stroke-width: 1; stroke-dasharray: none; stroke-linecap: butt; stroke-dashoffset: 0; stroke-linejoin: miter; stroke-miterlimit: 4; fill: rgb(255,255,255); fill-rule: nonzero; opacity: 1;" vector-effect="non-scaling-stroke"  transform=" translate(-319.5, -35)" d="M 292 0 L 347 0 L 347 20 L 315 20 L 315 24 L 347 24 L 347 70 L 292 70 L 292 49 L 324 49 L 324 45 L 292 45 z" stroke-linecap="round" />
</g>
<g transform="matrix(2.1 0 0 2.1 673.25 640.57)"  >
<polygon style="stroke: none; stroke-width: 1; stroke-dasharray: none; stroke-linecap: butt; stroke-dashoffset: 0; stroke-linejoin: miter; stroke-miterlimit: 4; fill: rgb(255,255,255); fill-rule: nonzero; opacity: 1;" vector-effect="non-scaling-stroke"  points="-0.96,8.76 -6.23,67.65 -56.88,81.32 -56.88,128.57 36.22,102.76 36.9,95.09 47.57,-24.46 48.68,-36.65 56.88,-128.57 -56.88,-128.57 -56.88,-83.15 7.11,-83.15 2.98,-36.65 -56.88,-36.65 -56.88,8.76 " />
</g>
</svg>