<svg xmlns="http://www.w3.org/2000/svg" xmlns:xlink="http://www.w3.org/1999/xlink" viewBox="0 0 513.6 529.96"><defs><style>.cls-1,.cls-161{fill:#fff;}.cls-1{filter:url(#luminosity-invert-noclip);}.cls-2{fill:#17234c;}.cls-3{fill:#395eab;}.cls-4{fill:#375caa;}.cls-5{fill:#2d57a7;}.cls-6{fill:#264fa2;}.cls-7{fill:#1c499f;}.cls-8{fill:#284da1;}.cls-9{fill:#234da1;}.cls-10{fill:#3157a7;}.cls-11{fill:#3858a7;}.cls-12{fill:#395aa9;}.cls-13{fill:#2a4ea2;}.cls-14{fill:#1b449c;}.cls-15{fill:#1f4394;}.cls-16{fill:#243d81;}.cls-17{fill:#253d81;}.cls-18{fill:#22418c;}.cls-19{fill:#253976;}.cls-20{fill:#243f89;}.cls-21{fill:#253b7d;}.cls-22{fill:#24356f;}.cls-23{fill:#253674;}.cls-24{fill:#232f66;}.cls-25{fill:#233066;}.cls-26{fill:#27397c;}.cls-27{fill:#26326e;}.cls-28{fill:#253d88;}.cls-29{fill:#273677;}.cls-30{fill:#26306a;}.cls-31{fill:#27326f;}.cls-32{fill:#242e65;}.cls-33{fill:#292a68;}.cls-34{fill:#293477;}.cls-35{fill:#2a3789;}.cls-36{fill:#2b337c;}.cls-37{fill:#2e4fa2;}.cls-38{fill:#274ba0;}.cls-39{fill:#2b51a4;}.cls-40{fill:#2c54a5;}.cls-41{fill:#2b56a6;}.cls-42{fill:#355caa;}.cls-43{fill:#2851a4;}.cls-44{fill:#243e85;}.cls-45{fill:#2c2e72;}.cls-46{fill:#2a3071;}.cls-47{fill:#282f6b;}.cls-48{fill:#1b4597;}.cls-49{fill:#2953a5;}.cls-50{fill:#365caa;}.cls-51{fill:#305aa9;}.cls-52{fill:#3059a8;}.cls-53{fill:#3055a6;}.cls-54{fill:#2f4fa2;}.cls-55{fill:#3153a4;}.cls-56{fill:#3355a6;}.cls-57{fill:#243e8f;}.cls-58{fill:#293880;}.cls-59{fill:#243e96;}.cls-60{fill:#2a3785;}.cls-61{fill:#273e99;}.cls-62{fill:#2e4a9f;}.cls-63{fill:#354da1;}.cls-64{fill:#293579;}.cls-65{fill:#262b64;}.cls-66{fill:#292b68;}.cls-67{fill:#252d65;}.cls-68{fill:#282966;}.cls-69{fill:#2d317e;}.cls-70{fill:#2d2f77;}.cls-71{fill:#2f2f7e;}.cls-72{fill:#2e2d77;}.cls-73{fill:#2b2b6b;}.cls-74{fill:#2d2d72;}.cls-75{fill:#2e2f7a;}.cls-76{fill:#2b2f73;}.cls-77{fill:#2d3282;}.cls-78{fill:#293171;}.cls-79{fill:#283272;}.cls-80{fill:#293679;}.cls-81{fill:#283b86;}.cls-82{fill:#243e8c;}.cls-83{fill:#293987;}.cls-84{fill:#2c358a;}.cls-85{fill:#2f308b;}.cls-86{fill:#2f2e7d;}.cls-87{fill:#2f2e7e;}.cls-88{fill:#302e82;}.cls-89{fill:#2a3891;}.cls-90{fill:#3b4a9f;}.cls-91{fill:#2a3b97;}.cls-92{fill:#273c8b;}.cls-93{fill:#2e3795;}.cls-94{fill:#333092;}.cls-95{fill:#403e99;}.cls-96{fill:#1c449c;}.cls-97{fill:#36419a;}.cls-98{fill:#373996;}.cls-99{fill:#3958a8;}.cls-100{fill:#2f3083;}.cls-101{fill:#2f2f81;}.cls-102{fill:#322f89;}.cls-103{fill:#3d3092;}.cls-104{fill:#413c97;}.cls-105{fill:#424b9f;}.cls-106{fill:#3a3092;}.cls-107{fill:#36308c;}.cls-108{fill:#4056a6;}.cls-109{fill:#3b5fac;}.cls-110{fill:#3c5daa;}.cls-111{fill:#4356a6;}.cls-112{fill:#4058a7;}.cls-113{fill:#3e56a6;}.cls-114{fill:#444fa1;}.cls-115{fill:#43479d;}.cls-116{fill:#3f51a3;}.cls-117{fill:#3952a3;}.cls-118{fill:#334ea1;}.cls-119{fill:#2c4a9f;}.cls-120{fill:#26479e;}.cls-121{fill:#24439c;}.cls-122{fill:#2f479d;}.cls-123{fill:#3c51a3;}.cls-124{fill:#3c469d;}.cls-125{fill:#4151a3;}.cls-126{fill:#42499e;}.cls-127{fill:#44439b;}.cls-128{fill:#44489e;}.cls-129{fill:#36308e;}.cls-130{fill:#2d2b6f;}.cls-131{fill:#2e3591;}.cls-132{fill:#313f99;}.cls-133{fill:url(#radial-gradient);}.cls-134{fill:url(#radial-gradient-2);}.cls-135{fill:url(#radial-gradient-3);}.cls-136{fill:url(#radial-gradient-4);}.cls-137{fill:url(#radial-gradient-5);}.cls-138{fill:url(#linear-gradient);}.cls-139{fill:url(#linear-gradient-2);}.cls-140{fill:url(#radial-gradient-6);}.cls-141{fill:url(#radial-gradient-7);}.cls-142{fill:url(#radial-gradient-8);}.cls-143{fill:url(#linear-gradient-3);}.cls-144{fill:url(#linear-gradient-4);}.cls-145{fill:url(#linear-gradient-5);}.cls-146{fill:url(#linear-gradient-6);}.cls-147{fill:url(#linear-gradient-7);}.cls-148{fill:url(#linear-gradient-8);}.cls-149{fill:url(#linear-gradient-9);}.cls-150{fill:url(#linear-gradient-10);}.cls-151{fill:url(#linear-gradient-11);}.cls-152{fill:url(#linear-gradient-12);}.cls-153{mask:url(#mask);}.cls-154{fill:url(#linear-gradient-13);}.cls-155{fill:#14499e;}.cls-156{fill:url(#radial-gradient-9);}.cls-157{fill:#3787c8;}.cls-158{fill:url(#radial-gradient-10);}.cls-159{fill:url(#radial-gradient-11);}.cls-160{stroke-miterlimit:15.12;stroke-width:17.77px;fill:url(#linear-gradient-14);stroke:url(#linear-gradient-15);}</style><radialGradient id="radial-gradient" cx="271.71" cy="328.23" r="150.04" gradientTransform="matrix(1, 0, 0, -1, -1.25, 533.1)" gradientUnits="userSpaceOnUse"><stop offset="0.1" stop-color="#54c9eb" stop-opacity="0.4"/><stop offset="0.9" stop-color="#6a58a5" stop-opacity="0.25"/></radialGradient><radialGradient id="radial-gradient-2" cx="257.27" cy="259.01" r="127.59" gradientTransform="matrix(1, 0, 0, -1, -1.25, 533.1)" gradientUnits="userSpaceOnUse"><stop offset="0.91" stop-color="#6a58a5" stop-opacity="0"/><stop offset="1" stop-color="#54c9eb" stop-opacity="0.4"/></radialGradient><radialGradient id="radial-gradient-3" cx="395.22" cy="451.39" r="592.22" gradientTransform="matrix(1.11, 0, 0, -0.9, 3.08, 465.3)" gradientUnits="userSpaceOnUse"><stop offset="0" stop-color="#93d8ee"/><stop offset="0.26" stop-color="#54c9eb"/><stop offset="0.53" stop-color="#3c8ac9"/><stop offset="0.86" stop-color="#3964af"/></radialGradient><radialGradient id="radial-gradient-4" cx="218.15" cy="206.15" r="592.22" gradientTransform="matrix(1.11, 0, 0, -0.9, 3.08, 465.3)" gradientUnits="userSpaceOnUse"><stop offset="0.3" stop-color="#332565" stop-opacity="0.8"/><stop offset="0.37" stop-color="#2c3581" stop-opacity="0.5"/><stop offset="0.48" stop-color="#1f4da1" stop-opacity="0.14"/><stop offset="0.53" stop-color="#2857a7" stop-opacity="0"/></radialGradient><radialGradient id="radial-gradient-5" cx="395.63" cy="645.98" r="925.18" gradientTransform="matrix(1.09, 0, 0, -0.92, 2.37, 475.41)" gradientUnits="userSpaceOnUse"><stop offset="0" stop-color="#93d8ee"/><stop offset="0.47" stop-color="#30b0e5"/><stop offset="0.84" stop-color="#3964af"/><stop offset="1" stop-color="#5a4b9f"/></radialGradient><linearGradient id="linear-gradient" x1="565.05" y1="605.19" x2="610.49" y2="308.79" gradientTransform="matrix(0.69, 0, 0, -1.45, -13.53, 844.1)" gradientUnits="userSpaceOnUse"><stop offset="0" stop-color="#b3e2f2"/><stop offset="0.29" stop-color="#54c9eb"/><stop offset="0.61" stop-color="#3c8ac9"/><stop offset="0.89" stop-color="#2857a7"/></linearGradient><linearGradient id="linear-gradient-2" x1="390.4" y1="567.49" x2="430.47" y2="368.48" gradientTransform="matrix(0.77, 0, 0, -1.3, -10.4, 740.96)" gradientUnits="userSpaceOnUse"><stop offset="0" stop-color="#b3e2f2"/><stop offset="0.29" stop-color="#54c9eb"/><stop offset="0.74" stop-color="#3c8ac9"/><stop offset="1" stop-color="#2857a7"/></linearGradient><radialGradient id="radial-gradient-6" cx="240.15" cy="496.61" r="188" gradientTransform="matrix(1, 0, 0, -1, -1.3, 533.99)" gradientUnits="userSpaceOnUse"><stop offset="0" stop-color="#54c9eb"/><stop offset="0.82" stop-color="#3c8ac9"/></radialGradient><radialGradient id="radial-gradient-7" cx="342.03" cy="384.16" r="565.46" gradientTransform="matrix(1.06, 0, 0, -0.95, 0.99, 496.04)" gradientUnits="userSpaceOnUse"><stop offset="0.29" stop-color="#93d8ee"/><stop offset="1" stop-color="#30b0e5"/></radialGradient><radialGradient id="radial-gradient-8" cx="232.1" cy="426.57" r="475.3" gradientTransform="matrix(1.01, 0, 0, -0.99, -0.86, 526.5)" gradientUnits="userSpaceOnUse"><stop offset="0.18" stop-color="#b3e2f2"/><stop offset="0.43" stop-color="#54c9eb"/><stop offset="0.69" stop-color="#3964af"/></radialGradient><linearGradient id="linear-gradient-3" x1="450.15" y1="457.82" x2="105.88" y2="97.91" gradientTransform="matrix(0.98, 0, 0, -1.02, -1.87, 544.31)" gradientUnits="userSpaceOnUse"><stop offset="0.24" stop-color="#93d8ee" stop-opacity="0.5"/><stop offset="0.7" stop-color="#54c9eb" stop-opacity="0"/></linearGradient><linearGradient id="linear-gradient-4" x1="205.1" y1="309.6" x2="158.13" y2="127.56" gradientTransform="matrix(1.03, 0, 0, -0.97, -0.07, 513.09)" gradientUnits="userSpaceOnUse"><stop offset="0" stop-color="#c4e8f5" stop-opacity="0.9"/><stop offset="1" stop-color="#93d8ee" stop-opacity="0.5"/></linearGradient><linearGradient id="linear-gradient-5" x1="640.2" y1="593.9" x2="631.98" y2="207.74" gradientTransform="matrix(0.64, 0, 0, -1.56, -15.33, 915.61)" gradientUnits="userSpaceOnUse"><stop offset="0" stop-color="#c4e8f5"/><stop offset="1" stop-color="#54c9eb" stop-opacity="0"/></linearGradient><linearGradient id="linear-gradient-6" x1="372.12" y1="565.97" x2="366.76" y2="408.66" gradientTransform="matrix(0.82, 0, 0, -1.23, -8.53, 688.7)" gradientUnits="userSpaceOnUse"><stop offset="0" stop-color="#c4e8f5"/><stop offset="1" stop-color="#b3e2f2" stop-opacity="0.5"/></linearGradient><linearGradient id="linear-gradient-7" x1="383.87" y1="382.4" x2="373.2" y2="125.37" gradientTransform="matrix(0.89, 0, 0, -1.12, -5.54, 617.19)" xlink:href="#linear-gradient-5"/><linearGradient id="linear-gradient-8" x1="148.78" y1="304.5" x2="162.96" y2="83.24" gradientTransform="matrix(1.06, 0, 0, -0.94, 1.23, 492.88)" gradientUnits="userSpaceOnUse"><stop offset="0" stop-color="#c4e8f5" stop-opacity="0.8"/><stop offset="1" stop-color="#93d8ee" stop-opacity="0.2"/></linearGradient><linearGradient id="linear-gradient-9" x1="187.12" y1="450.52" x2="129.95" y2="357.65" gradientTransform="matrix(0.98, 0, 0, -1.02, -2.05, 547.75)" xlink:href="#linear-gradient-8"/><linearGradient id="linear-gradient-10" x1="123.74" y1="369.34" x2="112.94" y2="71.84" gradientTransform="matrix(0.8, 0, 0, -1.25, -9.13, 705.21)" gradientUnits="userSpaceOnUse"><stop offset="0" stop-color="#54c9eb" stop-opacity="0.4"/><stop offset="1" stop-color="#54c9eb" stop-opacity="0"/></linearGradient><linearGradient id="linear-gradient-11" x1="170.83" y1="534.78" x2="170.83" y2="184.91" gradientTransform="matrix(0.79, 0, 0, -1.26, -9.34, 710.71)" xlink:href="#linear-gradient-5"/><linearGradient id="linear-gradient-12" x1="451.51" y1="472.62" x2="430.38" y2="-38.12" gradientTransform="matrix(0.84, 0, 0, -1.18, -7.39, 659.83)" gradientUnits="userSpaceOnUse"><stop offset="0" stop-color="#c4e8f5" stop-opacity="0.8"/><stop offset="1" stop-color="#54c9eb" stop-opacity="0"/></linearGradient><filter id="luminosity-invert-noclip" x="0" y="85.59" width="436.6" height="444.22" filterUnits="userSpaceOnUse" color-interpolation-filters="sRGB"><feColorMatrix values="-1 0 0 0 1 0 -1 0 0 1 0 0 -1 0 1 0 0 0 1 0" result="invert"/><feFlood flood-color="#fff" result="bg"/><feBlend in="invert" in2="bg"/></filter><mask id="mask" x="0" y="85.59" width="436.6" height="444.22" maskUnits="userSpaceOnUse"><path class="cls-1" d="M200.84,382.11c-31.39-16.2-55.94-48.53-59.18-85.69,0,0,11.86-44.17,84.92-44.17,7.9,0,30.47-22,30.91-28.41-.09-2.09-44.83-19.87-62.27-37-9.32-9.17-13.74-13.59-17.67-16.91a73.76,73.76,0,0,0-6.65-5,118.89,118.89,0,0,1-.73-62.75,190.42,190.42,0,0,0-61.87,47.76h-.12C98,137,98.72,94.47,99.29,85.59a46.89,46.89,0,0,0-8.61,4.54,186.58,186.58,0,0,0-25.12,21.51,223.8,223.8,0,0,0-24,28.75A216.55,216.55,0,0,0,7.1,218.16c-.12.55-.22,1.13-.34,1.69-.49,2.26-2.65,13.73-3,16.19h0A299.15,299.15,0,0,0,0,271.87v1.32c.26,142,115.58,256.88,257.57,256.62"/></mask><linearGradient id="linear-gradient-13" x1="136.48" y1="522.37" x2="172.31" y2="526.25" gradientTransform="matrix(2.28, 0, 0, -2.28, 20.53, 1383.13)" gradientUnits="userSpaceOnUse"><stop offset="0" stop-color="#74a5d8"/><stop offset="1" stop-color="#85b3db"/></linearGradient><radialGradient id="radial-gradient-9" cx="18.48" cy="728.63" r="58.39" gradientTransform="matrix(-0.02, 1.27, 2.35, 0.03, -1435.38, 63.06)" gradientUnits="userSpaceOnUse"><stop offset="0" stop-color="#3d72b9"/><stop offset="0.77" stop-color="#2f67b2"/><stop offset="1" stop-color="#255caa"/></radialGradient><radialGradient id="radial-gradient-10" cx="-96.81" cy="520.66" r="36.93" gradientTransform="matrix(1.85, 3.87, 4.9, -2.34, -2089.05, 1834.39)" gradientUnits="userSpaceOnUse"><stop offset="0" stop-color="#8eb8dc"/><stop offset="0.86" stop-color="#8ab5db"/><stop offset="1" stop-color="#59a0d4"/></radialGradient><radialGradient id="radial-gradient-11" cx="-458.5" cy="505.67" r="36.27" gradientTransform="matrix(-2.93, -0.2, -0.26, 3.9, -981.24, -1822.7)" gradientUnits="userSpaceOnUse"><stop offset="0" stop-color="#57b4cf"/><stop offset="0.68" stop-color="#4e9ad4"/><stop offset="1" stop-color="#3787c8"/></radialGradient><linearGradient id="linear-gradient-14" x1="-400.76" y1="475.11" x2="-400.61" y2="534.84" gradientTransform="matrix(1.76, 0, 0, -1.77, 985.46, 1137.01)" gradientUnits="userSpaceOnUse"><stop offset="0" stop-color="#1e67b2"/><stop offset="1" stop-color="#599bd4"/></linearGradient><linearGradient id="linear-gradient-15" x1="-400.9" y1="546.65" x2="-400.47" y2="461.79" gradientTransform="matrix(1.76, 0, 0, -1.77, 985.46, 1137.01)" gradientUnits="userSpaceOnUse"><stop offset="0" stop-color="#b5c8e7"/><stop offset="0.5" stop-color="#fff"/><stop offset="1" stop-color="#96b0da"/></linearGradient></defs><g id="Layer_2" data-name="Layer 2"><g id="Layer_1-2" data-name="Layer 1"><path class="cls-2" d="M139.91,308.86l16.17,44.84,24.31,32.8,57.06,10.89,27.3,2.32,46.61-11.64,20.08-19.25Z"/><path class="cls-2" d="M381.37,242.75l-5.72-19L359.31,193l-18.68-19.7-19.84-14.17-17.23-6.76L282.89,145l-34-2.17-21.47,3.87-17.51,5.38-31.06,18.19-19.42,21.67L141.5,221l-7,24.75-1.32,37.55,6.72,25.6,14.81,29.15,10.44,14.08,14.45,13.25,18,12.2,22.24,9.68,37.23,4.36,19.44.55,28.76-8.11L331,370l16.54-14.12,12.83-15.3L378.5,305l4-24.29Z"/><path class="cls-3" d="M249.54,159.87,234.3,175l24.86,10.08,18.49-22.94Z"/><path class="cls-4" d="M259.15,185.05l48.13-1.47-29.64-21.47Z"/><path class="cls-5" d="M303.73,161.93l-26.06.16,29.64,21.47,27.4-1.78Z"/><path class="cls-6" d="M334.66,181.8l-15.58-21.48,21.57,12.92Z"/><path class="cls-7" d="M355.33,195,334.7,181.83l6-8.57Z"/><path class="cls-8" d="M334.66,181.8l-3.45,14.72,18.87,7.55Z"/><path class="cls-9" d="M334.66,181.8,355.29,195l-5.21,9.11Z"/><path class="cls-10" d="M307.31,183.59l27.4-1.79-3.45,14.72Z"/><path class="cls-11" d="M307.31,183.59,285.65,203.2l27.87,13.64Z"/><path class="cls-12" d="M259.15,185.05l48.13-1.47-21.66,19.61Z"/><path class="cls-13" d="M331.22,196.51l13.1,25.42,5.77-17.88Z"/><path class="cls-14" d="M344.34,222l5.76-17.88,13.73,32.65Z"/><path class="cls-15" d="M350.1,204.06,371,219.39l-7.2,17.33Z"/><path class="cls-16" d="M355.33,195l4-2,11.68,26.46Z"/><path class="cls-17" d="M371,219.43l4.67,4.37L359.36,193Z"/><path class="cls-18" d="M371,219.43,355.32,195l-5.21,9.11Zm-30.36-46.16L355.32,195l4-2Z"/><path class="cls-19" d="M380.37,257.52l-4.66-33.77,5.72,19-1.13,14.81Z"/><path class="cls-20" d="M371,219.43l9.33,38.14L375.7,223.8Z"/><path class="cls-21" d="M363.81,236.72l16.52,20.81L371,219.39Z"/><path class="cls-22" d="M380.31,257.52l1.12-14.81,1.14,38-2.19-23.17Z"/><path class="cls-23" d="M377.59,287.59l5-6.85-2.19-23.17Z"/><path class="cls-24" d="M378.52,305l-4,1.9,8-26.2Z"/><path class="cls-25" d="M374.54,306.94l8-26.2-5,6.85Z"/><path class="cls-26" d="M377.59,287.59l2.77-30-8.49,10Z"/><path class="cls-27" d="M374.54,306.94l3-19.35L361.18,315.1Z"/><path class="cls-28" d="M363.81,236.72l16.52,20.81-8.48,10Z"/><path class="cls-29" d="M377.59,287.59l-5.72-20-8.63,24.64Z"/><path class="cls-30" d="M360.37,340.52l14.17-33.6-13.26,24.49Z"/><path class="cls-31" d="M361.29,331.38l13.27-24.49-13.37,8.16Z"/><path class="cls-32" d="M374.54,306.94l-14.17,33.58L378.5,305Zm-27,48.9,12.83-15.3.91-9.11ZM331,370l16.56-14.11-17.49,8Z"/><path class="cls-33" d="M234.44,379.74l-16.72,4.09.51-11.67Z"/><path class="cls-34" d="M141.56,221l4.61-1.71L134.52,245.7Z"/><path class="cls-35" d="M134.48,245.73l8.82-1.65,2.83-24.81Z"/><path class="cls-36" d="M135,277.52l-.53-31.77,8.82-1.65Z"/><path class="cls-37" d="M331.22,196.51l-17.74,20.32,30.84,5.1ZM176.41,175.67l22.64-15.5-20.21,10.06Z"/><path class="cls-38" d="M178.86,170.21,209.93,152l-10.86,8.14-20.21,10"/><path class="cls-39" d="M199.06,160.21l28.37-13.53-17.51,5.38Z"/><path class="cls-40" d="M307.31,183.59l6.21,33.25,17.74-20.32Zm-91-25L242.78,148l-15.34-1.38Z"/><path class="cls-41" d="M248.88,142.78l-21.46,3.87L242.76,148Z"/><path class="cls-42" d="M269.22,147.75,242.8,148l6.12-5.25"/><path class="cls-43" d="M319.1,160.34,303.7,162l31,19.88Zm-49.9-12.53,34.4,4.53L282.93,145Z"/><path class="cls-44" d="M319.1,160.34l-15.5-8,17.22,6.76Z"/><path class="cls-45" d="M139.91,308.86l10.19,8.36-15-39.74Zm140.37,79,8.94-21.06-32.58,8.75Zm8.94-21.06,27.24,7.56,1.65-21.06Z"/><path class="cls-46" d="M330.09,363.84l-12-10.48,29-19.25Z"/><path class="cls-47" d="M347.05,334.1l-17,29.73,17.49-8.05,13.74-24.41Z"/><path class="cls-48" d="M320.82,159.08l-1.72,1.25,21.56,12.92ZM303.7,162l15.4-1.64-15.5-8Z"/><path class="cls-49" d="M248.88,142.78l20.3,5L282.91,145Zm54.7,9.52-34.4-4.53L303.68,162Z"/><path class="cls-50" d="M269.22,147.75l8.43,14.34,26.07-.16Z"/><path class="cls-51" d="M269.22,147.75l8.43,14.34-28.11-2.26Z"/><path class="cls-52" d="M242.78,148l6.75,11.82,19.67-12.08Z"/><path class="cls-52" d="M216.35,158.62,242.78,148l6.75,11.82Z"/><path class="cls-53" d="M199.06,160.21l17.28-1.58,11.09-11.92Zm17.28-1.58L234.27,175l15.24-15.12Z"/><path class="cls-54" d="M216.35,158.62,187.16,186l11.92-25.8Z"/><path class="cls-55" d="M187.14,186l18.63,3.09,10.56-30.47Z"/><path class="cls-56" d="M205.75,189.09l10.57-30.47L234.25,175Z"/><path class="cls-57" d="M159.45,191.87l1.13,11,15.85-27.23Z"/><path class="cls-58" d="M146.13,219.3l13.3-27.38,1.13,11Z"/><path class="cls-59" d="M160.58,202.93l15.85-27.22L187.15,186Z"/><path class="cls-60" d="M159.58,226.52l1-23.61-14.43,16.36Z"/><path class="cls-61" d="M159.58,226.52l1-23.61,18.73,15.2Z"/><path class="cls-62" d="M179.32,218.1,187.17,186,160.6,202.9Z"/><path class="cls-63" d="M179.32,218.1,187.17,186l18.63,3.1Z"/><path class="cls-64" d="M143.29,244.07l2.82-24.81,13.47,7.24Z"/><path class="cls-65" d="M280.28,388l25-3.89,11.14-9.6ZM133.22,283.29l1.84-5.78-.53-31.8Zm10.14-39.2-8.3,33.42,15,39.75-7.36-46Z"/><path class="cls-66" d="M150,317.27,162.45,319l-8.69-20.28Z"/><path class="cls-67" d="M330.09,363.84l-13.64,10.6L305.32,384,331,369.93Zm-73,27.75,19.45.54L305.3,384l-25.05,3.89ZM161.64,340.3l13,2.51L162.46,319Z"/><path class="cls-68" d="M218.27,372.19l-22.08-17L187,364l30.74,19.84Zm-78.36-63.3L154.72,338l-4.64-20.78Zm-6.72-25.6,6.72,25.6L135,277.51ZM256.6,375.63l-38.35-3.45,16.2,7.58-16.71,4.09-20.12-6.26,22.24,9.67,37.23,4.37L280.27,388ZM162.47,319l-12.38-1.74,11.58,23.07ZM142.72,271.2l7.37,46.05,3.72-18.55Zm32,71.61-13-2.51L154.73,338l10.44,14.07,14.44,13.25,18,12.23L187,364Z"/><path class="cls-69" d="M143.29,244.07l17.5,27.09-1.21-44.66Z"/><path class="cls-70" d="M142.76,271.23l11.05,27.51,7.05-27.54Z"/><path class="cls-71" d="M153.75,298.72l7.05-27.54L169.55,293Z"/><path class="cls-72" d="M162.5,319l33.57,20.81L169.6,292.93Z"/><path class="cls-73" d="M154.75,338l6.93,2.29-11.57-23.07Zm74.12,12-10.6,22.17,38.36,3.45ZM162.5,319l12.21,23.84L187,364l9.18-8.83-.14-15.38Z"/><path class="cls-74" d="M318.1,353.37l-1.65,21.07,13.64-10.6Zm-58.7-3-2.78,25.28,32.59-8.75-1.15-28.42Z"/><path class="cls-75" d="M142.76,271.23h18.1l-17.51-27.09Zm145.33,67.24,1.16,28.42,28.89-13.5Z"/><path class="cls-76" d="M288,338.47l18.59-16.84,11.46,31.76Z"/><path class="cls-77" d="M318.1,353.37l14.06-42.57-25.51,10.82Z"/><path class="cls-78" d="M347.05,334.1l-29,19.25,14.06-42.58Z"/><path class="cls-79" d="M361.23,315.08l-29.06-4.27,14.91,23.33,14.25-2.73Z"/><path class="cls-80" d="M363.22,292.16l-31.09,18.61L361.19,315l16.37-27.51Z"/><path class="cls-81" d="M146.13,219.3l13.3-27.38L141.54,221Zm205.49,33.88,11.6,39,8.61-24.65Z"/><path class="cls-82" d="M371.83,267.52l-8-30.82L351.6,253.13Z"/><path class="cls-83" d="M332.15,310.78l31.08-18.61-30.12-13.41Z"/><path class="cls-84" d="M332.15,310.78,304,282.32l2.66,39.28Z"/><path class="cls-85" d="M288,338.47,266.4,319.32l40.22,2.31Z"/><path class="cls-86" d="M162.5,319l7.1-26.06-15.79,5.78Zm103.93.3-7,31.06,28.64-11.89Z"/><path class="cls-87" d="M221.65,325.68,200.84,315.1l-4.79,24.73L228.87,350l30.54.34Z"/><path class="cls-88" d="M259.41,350.33l7-31.05-44.77,6.36Z"/><path class="cls-89" d="M160.84,271.16l9-28.67-10.19-16Z"/><path class="cls-90" d="M179.32,218.1l39.42-11.48-20.82,42.53Z"/><path class="cls-91" d="M332.15,310.78,304,282.32l29.13-3.56Z"/><path class="cls-92" d="M363.22,292.16l-11.6-39-18.53,25.63Z"/><path class="cls-93" d="M306.64,321.64l-32.21-31.15L304,282.37Z"/><path class="cls-94" d="M266.43,319.32l40.23,2.32-32.22-31.15Z"/><path class="cls-95" d="M266.43,319.32l-22-17.93,30-10.9Z"/><path class="cls-96" d="M176.41,175.71l2.43-5.45-19.42,21.66ZM344.34,222l7.28,31.21,12.19-16.43Z"/><path class="cls-97" d="M179.32,218.1l18.6,31.05-28.1-6.66Z"/><path class="cls-98" d="M169.78,242.48l28.1,6.66-19,29.92Z"/><path class="cls-99" d="M218.74,206.64,234.3,175,205.8,189.1Z"/><path class="cls-100" d="M160.84,271.16l18.07,7.91-9.32,13.86Z"/><path class="cls-101" d="M178.92,279.11,169.6,293l26.47,46.86,4.79-24.73Z"/><path class="cls-102" d="M200.85,315.08l2.93-43.54-24.86,7.55Z"/><path class="cls-103" d="M200.85,315.08l43.56-13.7-40.63-29.84Z"/><path class="cls-104" d="M244.37,301.37l-4.24-33.66-36.38,3.83Z"/><path class="cls-105" d="M240.13,267.72l30.73-11.49,3.56,34.26Z"/><path class="cls-106" d="M221.65,325.68l44.77-6.35-22-17.94Z"/><path class="cls-107" d="M221.65,325.68,200.84,315.1l43.55-13.71Z"/><path class="cls-108" d="M218.74,206.64l26.67,2.83L234.3,175Z"/><path class="cls-109" d="M259.15,185.05,234.28,175l11.12,34.47Z"/><path class="cls-110" d="M259.15,185.05l26.47,18.14-40.22,6.25Z"/><path class="cls-111" d="M245.37,209.43l39.45,20.92-14,25.84Z"/><path class="cls-112" d="M284.85,230.36l.77-27.17-40.23,6.24Z"/><path class="cls-113" d="M284.85,230.36l.77-27.17,27.87,13.64Z"/><path class="cls-114" d="M245.37,209.43l25.47,46.76-44.67-22.37Z"/><path class="cls-115" d="M240.13,267.72l30.73-11.49-44.67-22.37Z"/><path class="cls-116" d="M270.87,256.19l39.4-7.2-25.41-18.64Z"/><path class="cls-117" d="M313.47,216.84,310.24,249l-25.41-18.64Z"/><path class="cls-118" d="M313.47,216.84l18.59,25.26L310.24,249Z"/><path class="cls-119" d="M344.34,222l-30.85-5.11,18.6,25.26Z"/><path class="cls-120" d="M187.21,186l11.92-25.84-22.64,15.49Zm157.19,36-12.25,20.16,19.56,11Z"/><path class="cls-121" d="M333.14,278.78l18.53-25.63L332.11,242.1Z"/><path class="cls-122" d="M333.14,278.78l-1-36.68L310.29,249Z"/><path class="cls-123" d="M179.32,218.1l39.42-11.48L205.8,189.08Zm91.55,38.11L304,282.33,310.27,249Z"/><path class="cls-124" d="M274.45,290.44,304,282.31l-33.12-26.12Z"/><path class="cls-125" d="M218.74,206.64l7.48,27.22,19.19-24.39Z"/><path class="cls-126" d="M218.74,206.64l-20.82,42.54,28.3-15.32Z"/><path class="cls-127" d="M226.22,233.87l-22.43,37.69,36.38-3.83Z"/><path class="cls-128" d="M240.13,267.72l4.25,33.67,30-10.9Zm-36.39,3.83,22.44-37.69-28.3,15.32Z"/><path class="cls-129" d="M178.92,279.11l19-29.92,5.87,22.37Z"/><path class="cls-130" d="M197.61,377.62l20.11,6.29L187,364.07Zm-1.46-22.38,22.08,17,10.6-22.18L196,339.86Zm60.44,20.45,2.79-25.28-30.55-.35Zm32.58-8.78L280.23,388l36.18-13.5Z"/><path class="cls-131" d="M160.84,271.16l9-28.67,9.09,36.58Z"/><path class="cls-132" d="M169.78,242.48l9.5-24.39-19.68,8.44ZM310.22,249l-6.28,33.33,29.15-3.56Z"/><path class="cls-133" d="M383.09,280.77v0l-1.15-38v-.13l-5.71-18.95v0l-16.34-30.83-18.83-19.9h0l-19.83-14.16h-.08L303.89,152h-.12l-20.67-7.36H283l-34-2.16h-.14l-21.47,3.87h-.08l-17.49,5.38h-.11l-31.07,18.07-19.41,21.66L141.27,220.5v.07l-7.05,24.75v.1L132.9,283v.18l6.71,25.58v.09L154.41,338v0l10.25,14.43v0l14.44,13.25h0l18,12.2h0l22.25,9.68h.14L256.82,392h.05l19.44.54h.15l28.77-8.1h.09L331,370.29l0,0h0l16.56-14.11,12.82-15.31.05-.06,18.14-35.51v-.14l4-24.28v-.06ZM179.92,365l-3.74-3.44,8.41,6.6Zm54.6,14.26-13.15-6.15,31.13,2.8Zm4.79-112-34.52,3.63,21.29-35.78Zm-12.05-32.22,42.17,21.13-29,10.82Zm12.36,33.31,4,31.8L205.22,272Zm3.52,32.84L201.4,314.34l2.8-41.73Zm-2.32-32.31,32.33,21.47-28.33,10.28Zm.51-1,29-10.85,3.36,32.36Zm44.58-37.37,26.89-12.69-3,30.2Zm22.93,18.23-37,6.75L285,231.24Zm-38,6.34-24-44.22,37.3,19.78ZM269.5,255,227.05,233.7l18.24-23.19ZM204,270.14l-5.41-20.65,26.12-14.14Zm-3.58,43.18-20.64-33.85,23.39-7.11ZM242.5,302.6l-21,22.41-19.21-9.76Zm31.07-11.18-7.48,27-20.64-16.77Zm-2-33.89,31.2,24.61-27.82,7.67Zm.62-.94,37.37-6.82-6,31.6Zm38.72-8.31,3-29.87,17.27,23.45Zm20.63-5.37,1,34.2-21.31-27.75Zm-46.09-13.39.71-25.38,26,12.75Zm-1.13,0-37.16-19.71L285,203.93Zm-57.87,3.16-7-25.34L244.31,210Zm-.91.95-26.37,14.25,19.4-39.62ZM203.06,271.2l-22.89,7,17.5-27.56Zm-4.14,41.89-28.59-20.24,8.52-12.66Zm2.3,2.88,19.21,9.76-23.62,13Zm43.2-13.78L265.05,319l-41.92,6Zm30.27-10.6L305.17,321l-38-2.18Zm.81-.78,27.94-7.69L306,320.26Zm35.06-40.41,21.48,28-27.38,3.31Zm22.09-7.29,18.13,10.27-17.22,23.78Zm.19-1.18,11.26-18.49,6.68,28.65Zm-.83-.81-17.27-23.46,28.66,4.74Zm-45.42-38,20.29-18.37,5.82,31.16Zm-40.16,5.65,12.88-22.84,24.8,17Zm-26.88-2.54,14.58-29.68,10.42,32.33ZM197.82,248,180.14,218.5l37.48-10.93Zm-18.72,29.7-8.55-34.41L197,249.58Zm-9.42,14.06-7.85-19.48L178,279.4Zm30.5,23.58-4.41,22.87-24.51-43.35Zm21.1,11.16L228,349.2l-30.55-9.5ZM265.66,320,259,349.48l-35.83-23.43Zm39.58,2.13L288,337.75,268,320Zm-.62-38.3,26.49,26.8-24,10.19Zm.54-1.05,27.34-3.31-.93,30Zm46.24-28.34,10.91,36.77L333.94,278.6Zm-6.2-31.08L363,236.88l-11.14,15Zm-30.65-6.87,16.56-18.94,12.21,23.69Zm-.75-.86-5.79-31,22.3,12Zm-28.26-13.11-24.69-16.92,44.89-1.37Zm-40,5.56L235.16,176l23.15,9.39Zm-26.92-2.5-12-16.26L233,176.26Zm-.83.76L181,217.07l24.67-27Zm-21.06,42-26.16-6.2,8.85-22.72Zm-18.65,29.81-16.56-7.26,8.23-26.28Zm-9.23,14.48-14.25,5.22L160.92,273Zm25.63,45.57L163.1,318.79l6.62-24.34Zm31.92,11.66-29.66,4.7-.12-14ZM222.59,327l34.87,22.81-28.21-.32Zm44.14-6.62L287,338.32l-26.8,11.13Zm39.67,2.27,10.7,29.65L289,338.4Zm1-.67,23.85-10.12L318,351.72Zm26.3-42.29L362,292.33l-29.27,17.53Zm19-25.08,18.55,13.21-7.95,22.61Zm-.2-1.53,11.15-15,7.34,28.19ZM345,221.8l5.13-16.06,12.33,29.33Zm-.77-1.25-11.83-22.9,17,6.79Zm-35-36.44L334,182.5l-3.11,13.25Zm-48.91.43L277.74,163l27.88,20.2Zm-1-.51-9-23.46,26.17,2.11Zm-1.17.1-22.87-9.27,14-13.91Zm-51.39,3.93,9.83-28.38,16.7,15.24ZM180.38,216.2l7.2-29.49,17.1,2.84Zm-10.69,25.17-9.23-14.5,17.84-7.62Zm-.49,1.32-7.9,25.18-1.06-39.26Zm-9.09,29.15L153.67,297l-10.11-25.17Zm-16.8-1.1.53-24.7,16,24.68Zm25.45,23.19-6.44,23.43-7.81-18.27Zm25.67,45.63L175,342.3l-11.1-21.67Zm1.06,1,.13,13.76-19.21-11.06Zm32.4,10.28L218,371.37l-20.5-15.78Zm1.16.2L255,375l-35.91-3.23Zm1.27-.35,28.48.33-2.59,23.56Zm57.2-11.26L288.61,366l-27.92-15.55Zm1.13.1,28.16,14-27.07,12.65Zm43.67-27.28,14,21.86-27.16,18Zm1-.57,26.91,4-13.13,17.56Zm.5-1.06,28.79-17.22-1.88,21.19Zm38-41.07,5.08,17.79-12.75,4.12ZM365,239.19l14.57,18.36-7.48,8.84Zm-13.65-33.45,18.94,13.87-6.51,15.68Zm-19.51-9.53,3.05-13,13.63,19.69Zm-24.14-13.16-3.31-19.87,28.49,18.24Zm-1.25-.66-27.16-19.67,23.85-.15Zm-55.21-22.91L269,148.61l7.61,12.91Zm-17,14.79-16.41-15,30.35,1.14Zm-28.86,14.24-17-2.84,26.7-25Zm-26.44,28.66L161.51,203l24.74-15.75Zm-.74.85-18,7.68.88-21.6Zm-18,51.22L144,244.2,159.07,228Zm-7,29.57-3.07,15.31-6.06-38Zm.78,1.83,7.59,17.7-10.82-1.51Zm19.68,41.46-11.44-2.22.73-18.69Zm21.6,13.25-8.12,7.81L176.2,344.4Zm1,.62,19.51,15-27.61-7.22Zm63.65-4.68,27.82,15.45-30.47,8.18Zm57.59,3-1.53,19.43-25.11-7ZM345.37,336l-15.46,27.11L319,353.49Zm15.24-19.14.08,14.17-12.37,2.37Zm3.1-24.15,12.58-4.07L362,312.72Zm8.72-24.93,7.14-8.42-2.29,25.26Zm-8-31.05,6.41-15.44,8.31,34ZM350.78,204l4.51-7.86,13.57,21.1Zm-.78-.89-13.33-19.21,17.83,11.36ZM305.29,162.4,318.78,161l13.65,18.82Zm-27.39-.8L270.47,149l30.37,12.48Zm-28.23-2.47-6-10.48,23.44-.24Zm-1.2.18L219,158.2l23.52-9.4Zm-59.62,24.35,10.6-22.89,15.33-1.4Zm-1.9,1.43-9.65-9.28,20.39-13.95Zm-.72.86-24,15.29,14.36-24.61Zm-27.16,39.7-12-6.49,12.91-14.64Zm-.38,1.07L144,242.5l2.54-22.29ZM142.11,271l-6.19,5.06,6.67-26.87Zm.16,1.32L148.59,312l-13-34.22Zm19.56,47.23-.72,18.63L151,318Zm12.44,23.84,10.31,17.7-21.16-19.77Zm43.36,29.28-.44,10.24-27-17.4Zm1.11.44,14,6.55-14.44,3.53ZM256,376.36l.43,14.36-20.34-10.65Zm32.16-8.61-8.26,19.43-21.82-11.35Zm1.32-.17,25.1,7L281.28,387Zm29-13,10.64,9.27-12.12,9.44Zm28.86-19.91,12.25-2.34L332.8,360.24Zm14.43-5.42-.08-13.82,11.31-6.91Zm1-15.8,13.71-23L374,306.62Zm17.5-49.81,1.6,17-3.63,5ZM372,221.15l3.13,2.94,3.14,22.72Zm-15.9-25.91,2.95-1.49,8.53,19.34ZM335.43,181.7l5.18-7.42,12.68,18.81Zm-.81-.81-13.5-18.63,18.7,11.2Zm-30.41-19.5-.08-8.1,13,6.72Zm-1.12-.22L273.35,149l29.65,3.9Zm-58.82-13.66,4.73-4.06,15.7,3.87Zm-25.84,9.7,9.2-9.93,12.74,1.14Zm-2.38.92-13.91,1.26L225,148.49Zm-38.32,16,1.53-3.45,12.79-6.35Zm-16.8,27-.93-9,13.91-13.25Zm-1,1.59-11.54,13.09L159.06,194Zm-17.19,40.89L135.41,245l9.73-22.09Zm-.25,1.19-7,28.39-.45-27Zm6.21,70.68-8.38-6.88-4-25.84Zm11.74,23.85-5.35-1.75-3.58-16Zm22.86,22.05-17.74-9.62-2.86-9.59Zm3.24,3.05,7.69,9.8-23.51-18.42Zm2.88,1.84,24.46,15.79-16-5Zm44.88,14.06,19,9.94-33-6.51Zm22.82-3.78,21.28,11.07L257.59,391Zm56.49-.52L305,383.54l-19.44,3Zm16-11.17.72,4.64L319.17,373Zm29-29.91-11.46,20.44-14.62,6.72Zm3.2-3.41,7.7-14.21-8.23,19.5Zm16.26-43.78,2.9-4-4.63,15.36Zm2.8-30.29,0-.3.29-3.8.29,9.85Zm-.78-5.6-2.9-21,3.6,11.92Zm-8.61-32.83-5.3-12,7.42,14Zm-16-24.83-10.6-15.7,13.51,14.24Zm-35.39-33.89.71-.51,8.12,5.8Zm-1.07-.62-5.51-2.84,6.12,2.4Zm-46.48-12,10.32-2.12,15.53,5.53Zm-3.36-.45-14.05-3.46,23.55,1.5Zm-26.62.26-11-1,15.34-2.77Zm-38.67,9.79,6.27-4.7,10.11-3.11Zm-5.14,2.45-5.44,2.71,8.36-4.89Zm-22.82,15.65-6.45,6.16,7.37-8.23Zm-30.22,43.47-2.87,1.06L154,201.84ZM142,221.46l3.1-1.14-7.83,17.77Zm-7.7,46.13.16,9.89-.57,1.8Zm.54,12.42,2.82,18.18-3.89-14.84Zm14.72,37.61,3.63,16.23-11.58-22.77Zm11.63,23.19,2.52,8.46-7.5-10.1Zm56.2,43.57,1,1.67-11-4.78Zm2.82,2.38-1.32-2.05,23.92,4.71Zm58.6,2-2.52,2.85-13.13-.37Zm1.74-.27L296.18,386l-18,5.07ZM316.69,375l9.18-2.84L309.71,381Zm14.71-6.09-.72-4.64,13.41-6.17ZM360.45,334l-.63,6.26L351,350.82ZM375,307.34l2.27-1.09-10.38,20.39Zm3-2.7-2.54,1.23L380.56,289Z"/><path class="cls-134" d="M383.09,280.77v0l-1.15-38v-.13l-5.71-18.95v0l-16.34-30.83-18.83-19.9h0l-19.83-14.16h-.08L303.89,152h-.12l-20.67-7.36H283l-34-2.16h-.14l-21.47,3.87h-.08l-17.49,5.38h-.11l-31.07,18.07-19.41,21.66L141.27,220.5v.07l-7.05,24.75v.1L132.9,283v.18l6.71,25.58v.09L154.41,338v0l10.25,14.43v0l14.44,13.25h0l18,12.2h0l22.25,9.68h.14L256.82,392h.05l19.44.54h.15l28.77-8.1h.09L331,370.29l0,0h0l16.56-14.11,12.82-15.31.05-.06,18.14-35.51v-.14l4-24.28v-.06ZM179.92,365l-3.74-3.44,8.41,6.6Zm54.6,14.26-13.15-6.15,31.13,2.8Zm4.79-112-34.52,3.63,21.29-35.78Zm-12.05-32.22,42.17,21.13-29,10.82Zm12.36,33.31,4,31.8L205.22,272Zm3.52,32.84L201.4,314.34l2.8-41.73Zm-2.32-32.31,32.33,21.47-28.33,10.28Zm.51-1,29-10.85,3.36,32.36Zm44.58-37.37,26.89-12.69-3,30.2Zm22.93,18.23-37,6.75L285,231.24Zm-38,6.34-24-44.22,37.3,19.78ZM269.5,255,227.05,233.7l18.24-23.19ZM204,270.14l-5.41-20.65,26.12-14.14Zm-3.58,43.18-20.64-33.85,23.39-7.11ZM242.5,302.6l-21,22.41-19.21-9.76Zm31.07-11.18-7.48,27-20.64-16.77Zm-2-33.89,31.2,24.61-27.82,7.67Zm.62-.94,37.37-6.82-6,31.6Zm38.72-8.31,3-29.87,17.27,23.45Zm20.63-5.37,1,34.2-21.31-27.75Zm-46.09-13.39.71-25.38,26,12.75Zm-1.13,0-37.16-19.71L285,203.93Zm-57.87,3.16-7-25.34L244.31,210Zm-.91.95-26.37,14.25,19.4-39.62ZM203.06,271.2l-22.89,7,17.5-27.56Zm-4.14,41.89-28.59-20.24,8.52-12.66Zm2.3,2.88,19.21,9.76-23.62,13Zm43.2-13.78L265.05,319l-41.92,6Zm30.27-10.6L305.17,321l-38-2.18Zm.81-.78,27.94-7.69L306,320.26Zm35.06-40.41,21.48,28-27.38,3.31Zm22.09-7.29,18.13,10.27-17.22,23.78Zm.19-1.18,11.26-18.49,6.68,28.65Zm-.83-.81-17.27-23.46,28.66,4.74Zm-45.42-38,20.29-18.37,5.82,31.16Zm-40.16,5.65,12.88-22.84,24.8,17Zm-26.88-2.54,14.58-29.68,10.42,32.33ZM197.82,248,180.14,218.5l37.48-10.93Zm-18.72,29.7-8.55-34.41L197,249.58Zm-9.42,14.06-7.85-19.48L178,279.4Zm30.5,23.58-4.41,22.87-24.51-43.35Zm21.1,11.16L228,349.2l-30.55-9.5ZM265.66,320,259,349.48l-35.83-23.43Zm39.58,2.13L288,337.75,268,320Zm-.62-38.3,26.49,26.8-24,10.19Zm.54-1.05,27.34-3.31-.93,30Zm46.24-28.34,10.91,36.77L333.94,278.6Zm-6.2-31.08L363,236.88l-11.14,15Zm-30.65-6.87,16.56-18.94,12.21,23.69Zm-.75-.86-5.79-31,22.3,12Zm-28.26-13.11-24.69-16.92,44.89-1.37Zm-40,5.56L235.16,176l23.15,9.39Zm-26.92-2.5-12-16.26L233,176.26Zm-.83.76L181,217.07l24.67-27Zm-21.06,42-26.16-6.2,8.85-22.72Zm-18.65,29.81-16.56-7.26,8.23-26.28Zm-9.23,14.48-14.25,5.22L160.92,273Zm25.63,45.57L163.1,318.79l6.62-24.34Zm31.92,11.66-29.66,4.7-.12-14ZM222.59,327l34.87,22.81-28.21-.32Zm44.14-6.62L287,338.32l-26.8,11.13Zm39.67,2.27,10.7,29.65L289,338.4Zm1-.67,23.85-10.12L318,351.72Zm26.3-42.29L362,292.33l-29.27,17.53Zm19-25.08,18.55,13.21-7.95,22.61Zm-.2-1.53,11.15-15,7.34,28.19ZM345,221.8l5.13-16.06,12.33,29.33Zm-.77-1.25-11.83-22.9,17,6.79Zm-35-36.44L334,182.5l-3.11,13.25Zm-48.91.43L277.74,163l27.88,20.2Zm-1-.51-9-23.46,26.17,2.11Zm-1.17.1-22.87-9.27,14-13.91Zm-51.39,3.93,9.83-28.38,16.7,15.24ZM180.38,216.2l7.2-29.49,17.1,2.84Zm-10.69,25.17-9.23-14.5,17.84-7.62Zm-.49,1.32-7.9,25.18-1.06-39.26Zm-9.09,29.15L153.67,297l-10.11-25.17Zm-16.8-1.1.53-24.7,16,24.68Zm25.45,23.19-6.44,23.43-7.81-18.27Zm25.67,45.63L175,342.3l-11.1-21.67Zm1.06,1,.13,13.76-19.21-11.06Zm32.4,10.28L218,371.37l-20.5-15.78Zm1.16.2L255,375l-35.91-3.23Zm1.27-.35,28.48.33-2.59,23.56Zm57.2-11.26L288.61,366l-27.92-15.55Zm1.13.1,28.16,14-27.07,12.65Zm43.67-27.28,14,21.86-27.16,18Zm1-.57,26.91,4-13.13,17.56Zm.5-1.06,28.79-17.22-1.88,21.19Zm38-41.07,5.08,17.79-12.75,4.12ZM365,239.19l14.57,18.36-7.48,8.84Zm-13.65-33.45,18.94,13.87-6.51,15.68Zm-19.51-9.53,3.05-13,13.63,19.69Zm-24.14-13.16-3.31-19.87,28.49,18.24Zm-1.25-.66-27.16-19.67,23.85-.15Zm-55.21-22.91L269,148.61l7.61,12.91Zm-17,14.79-16.41-15,30.35,1.14Zm-28.86,14.24-17-2.84,26.7-25Zm-26.44,28.66L161.51,203l24.74-15.75Zm-.74.85-18,7.68.88-21.6Zm-18,51.22L144,244.2,159.07,228Zm-7,29.57-3.07,15.31-6.06-38Zm.78,1.83,7.59,17.7-10.82-1.51Zm19.68,41.46-11.44-2.22.73-18.69Zm21.6,13.25-8.12,7.81L176.2,344.4Zm1,.62,19.51,15-27.61-7.22Zm63.65-4.68,27.82,15.45-30.47,8.18Zm57.59,3-1.53,19.43-25.11-7ZM345.37,336l-15.46,27.11L319,353.49Zm15.24-19.14.08,14.17-12.37,2.37Zm3.1-24.15,12.58-4.07L362,312.72Zm8.72-24.93,7.14-8.42-2.29,25.26Zm-8-31.05,6.41-15.44,8.31,34ZM350.78,204l4.51-7.86,13.57,21.1Zm-.78-.89-13.33-19.21,17.83,11.36ZM305.29,162.4,318.78,161l13.65,18.82Zm-27.39-.8L270.47,149l30.37,12.48Zm-28.23-2.47-6-10.48,23.44-.24Zm-1.2.18L219,158.2l23.52-9.4Zm-59.62,24.35,10.6-22.89,15.33-1.4Zm-1.9,1.43-9.65-9.28,20.39-13.95Zm-.72.86-24,15.29,14.36-24.61Zm-27.16,39.7-12-6.49,12.91-14.64Zm-.38,1.07L144,242.5l2.54-22.29ZM142.11,271l-6.19,5.06,6.67-26.87Zm.16,1.32L148.59,312l-13-34.22Zm19.56,47.23-.72,18.63L151,318Zm12.44,23.84,10.31,17.7-21.16-19.77Zm43.36,29.28-.44,10.24-27-17.4Zm1.11.44,14,6.55-14.44,3.53ZM256,376.36l.43,14.36-20.34-10.65Zm32.16-8.61-8.26,19.43-21.82-11.35Zm1.32-.17,25.1,7L281.28,387Zm29-13,10.64,9.27-12.12,9.44Zm28.86-19.91,12.25-2.34L332.8,360.24Zm14.43-5.42-.08-13.82,11.31-6.91Zm1-15.8,13.71-23L374,306.62Zm17.5-49.81,1.6,17-3.63,5ZM372,221.15l3.13,2.94,3.14,22.72Zm-15.9-25.91,2.95-1.49,8.53,19.34ZM335.43,181.7l5.18-7.42,12.68,18.81Zm-.81-.81-13.5-18.63,18.7,11.2Zm-30.41-19.5-.08-8.1,13,6.72Zm-1.12-.22L273.35,149l29.65,3.9Zm-58.82-13.66,4.73-4.06,15.7,3.87Zm-25.84,9.7,9.2-9.93,12.74,1.14Zm-2.38.92-13.91,1.26L225,148.49Zm-38.32,16,1.53-3.45,12.79-6.35Zm-16.8,27-.93-9,13.91-13.25Zm-1,1.59-11.54,13.09L159.06,194Zm-17.19,40.89L135.41,245l9.73-22.09Zm-.25,1.19-7,28.39-.45-27Zm6.21,70.68-8.38-6.88-4-25.84Zm11.74,23.85-5.35-1.75-3.58-16Zm22.86,22.05-17.74-9.62-2.86-9.59Zm3.24,3.05,7.69,9.8-23.51-18.42Zm2.88,1.84,24.46,15.79-16-5Zm44.88,14.06,19,9.94-33-6.51Zm22.82-3.78,21.28,11.07L257.59,391Zm56.49-.52L305,383.54l-19.44,3Zm16-11.17.72,4.64L319.17,373Zm29-29.91-11.46,20.44-14.62,6.72Zm3.2-3.41,7.7-14.21-8.23,19.5Zm16.26-43.78,2.9-4-4.63,15.36Zm2.8-30.29,0-.3.29-3.8.29,9.85Zm-.78-5.6-2.9-21,3.6,11.92Zm-8.61-32.83-5.3-12,7.42,14Zm-16-24.83-10.6-15.7,13.51,14.24Zm-35.39-33.89.71-.51,8.12,5.8Zm-1.07-.62-5.51-2.84,6.12,2.4Zm-46.48-12,10.32-2.12,15.53,5.53Zm-3.36-.45-14.05-3.46,23.55,1.5Zm-26.62.26-11-1,15.34-2.77Zm-38.67,9.79,6.27-4.7,10.11-3.11Zm-5.14,2.45-5.44,2.71,8.36-4.89Zm-22.82,15.65-6.45,6.16,7.37-8.23Zm-30.22,43.47-2.87,1.06L154,201.84ZM142,221.46l3.1-1.14-7.83,17.77Zm-7.7,46.13.16,9.89-.57,1.8Zm.54,12.42,2.82,18.18-3.89-14.84Zm14.72,37.61,3.63,16.23-11.58-22.77Zm11.63,23.19,2.52,8.46-7.5-10.1Zm56.2,43.57,1,1.67-11-4.78Zm2.82,2.38-1.32-2.05,23.92,4.71Zm58.6,2-2.52,2.85-13.13-.37Zm1.74-.27L296.18,386l-18,5.07ZM316.69,375l9.18-2.84L309.71,381Zm14.71-6.09-.72-4.64,13.41-6.17ZM360.45,334l-.63,6.26L351,350.82ZM375,307.34l2.27-1.09-10.38,20.39Zm3-2.7-2.54,1.23L380.56,289Z"/><path class="cls-135" d="M495,177.76c-11.16-26.84-33.78-55.82-51.56-65a266,266,0,0,1,26,77.9c0-.05,0,.06,0,.25l.05.27a232.2,232.2,0,0,1-8,173.3C432,427.64,360.74,492.35,249.12,489.17,128.55,485.76,22.3,396.36,2.49,279.31c-3.61-18.47,0-27.83,1.82-42.83A190.94,190.94,0,0,0,.15,271.9v1.32c.47,142,116,256.71,257.94,256.24a257.11,257.11,0,0,0,252.4-212.82c.43-3.31.78-6.59,1.16-9.9a263.66,263.66,0,0,0-16.67-129Z"/><path class="cls-136" d="M495,177.76c-11.16-26.84-33.78-55.82-51.56-65a266,266,0,0,1,26,77.9c0-.05,0,.06,0,.25l.05.27a232.2,232.2,0,0,1-8,173.3C432,427.64,360.74,492.35,249.12,489.17,128.55,485.76,22.3,396.36,2.49,279.31c-3.61-18.47,0-27.83,1.82-42.83A190.94,190.94,0,0,0,.15,271.9v1.32c.47,142,116,256.71,257.94,256.24a257.11,257.11,0,0,0,252.4-212.82c.43-3.31.78-6.59,1.16-9.9a263.66,263.66,0,0,0-16.67-129Z"/><path class="cls-137" d="M2.44,279.31C22.27,396.37,128.5,485.8,249.13,489.17c111.62,3.16,183-61.56,212.38-124.67a232.18,232.18,0,0,0,8-173.29V191c0-.19,0-.3,0-.24l0,.43c9.12,59.47-21.16,117-68.49,156.07l-.15.33c-92.28,75-180.58,45.24-198.46,33.06-1.26-.6-2.51-1.23-3.75-1.87-53.77-25.66-76-74.59-71.21-116.58a66,66,0,0,1-60.89-38.27,97.07,97.07,0,0,1,94.53-3.78,128.1,128.1,0,0,0,96.52,3.79c-.1-2.09-44.83-19.87-62.27-37C186,177.69,181.6,173.28,177.69,170a76.9,76.9,0,0,0-6.63-5c-1.53-1-3.24-2.17-5.3-3.52-18.74-12.18-56-11.5-57.26-11.48h-.12c-10.19-12.89-9.47-55.42-8.89-64.3a46,46,0,0,0-8.61,4.55,187.16,187.16,0,0,0-25.12,21.49,225.83,225.83,0,0,0-24,28.79v0A216.64,216.64,0,0,0,7.24,218.24c-.12.56-9.25,40.44-4.75,61.12Z"/><path class="cls-138" d="M347.78,178a139.46,139.46,0,0,1,23.85,31.13c1.34,1,2.62,2,3.86,3.15C433.79,266,403.23,341.82,401,347.19c47.34-39,77.64-96.59,68.5-156.07C440.38,118.78,391.08,89.56,350.87,26q-3.11-4.87-6.05-9.84-1.51-2.59-2.83-5.3A47,47,0,0,1,338.15.7a.67.67,0,0,0-.58-.66,1,1,0,0,0-.49,0L337,.11l-.2.08c-9.93,4.73-68.89,98,11,177.8Z"/><path class="cls-139" d="M248.88,142.78l34,2.17,20.67,7.35,17.22,6.76,19.84,14.17,18.69,19.7,6.49,12.25q2.12,1.33,4.2,2.73c.56.4,1.07.79,1.6,1.18A139.59,139.59,0,0,0,347.77,178c-79.89-79.83-21-173-11-177.8l.14-.15c-64.57,37.76-86.45,107.65-88.51,142.62v.2Z"/><path class="cls-140" d="M165.68,161.4c1.79,1.13,3.55,2.31,5.3,3.52a118.79,118.79,0,0,1-.73-62.75,190.42,190.42,0,0,0-61.87,47.76C109.65,149.9,146.93,149.22,165.68,161.4Z"/><path class="cls-141" d="M141.7,296.47s11.86-44.16,84.92-44.16c7.9,0,30.47-22,30.91-28.42A128.1,128.1,0,0,1,161,220.1a97,97,0,0,0-94.53,3.79,66,66,0,0,0,60.89,38.26c-4.76,42,17.46,90.89,71.22,116.59,1.2.57,2.33,1.2,3.56,1.75-31.39-16.21-57.31-46.83-60.55-84Z"/><path class="cls-142" d="M375.47,212.27c-1.24-1.11-2.52-2.16-3.86-3.15-.52-.39-1-.78-1.6-1.17a88.79,88.79,0,0,0-62-15c92.48,46.17,67.64,205.15-60.47,199.13a114.39,114.39,0,0,1-33.45-6.45c-2.54-1-5.06-2-7.55-3.08-1.44-.66-2.89-1.32-4.33-2.07l.18.12c17.88,12.17,106.12,41.94,198.4-33.09l.14-.33c2.28-5.41,32.81-81.28-25.46-134.88Z"/><path class="cls-143" d="M494.91,177.76c-11.17-26.85-33.79-55.82-51.57-65a265.82,265.82,0,0,1,26,77.9l.06.42C440.36,118.76,391.05,89.55,350.84,26q-3.12-4.86-6-9.83-1.52-2.6-2.84-5.3A46.74,46.74,0,0,1,338.12.72a.67.67,0,0,0-.58-.66,1,1,0,0,0-.48,0s-.1.06-.14.07a1.45,1.45,0,0,1-.18.1l.1-.14c-64.56,37.76-86.44,107.84-88.5,142.82l.53-.09,34,2.16,19.16,6.81,18.74,7.29,19.84,14.17,18.66,19.69s6.43,12.05,6.52,12.26A88,88,0,0,0,308,192.89c92.47,46.17,67.63,205.16-60.48,199.13a114.64,114.64,0,0,1-33.44-6.44q-3.75-1.41-7.55-3.1c-1.47-.65-2.91-1.34-4.34-2.07l.18.12c-1.25-.61-2.5-1.23-3.74-1.86,1.2.57,2.33,1.19,3.56,1.74-31.38-16.2-57.3-46.83-60.54-84,0,0,11.86-44.17,84.92-44.17,7.9,0,30.47-22,30.91-28.41-.09-2.09-44.83-19.87-62.27-37-9.32-9.17-13.74-13.59-17.67-16.91a73.76,73.76,0,0,0-6.65-5,118.89,118.89,0,0,1-.73-62.75,190.42,190.42,0,0,0-61.87,47.76h-.12C98,137,98.72,94.47,99.29,85.59a46.89,46.89,0,0,0-8.61,4.54,186.58,186.58,0,0,0-25.12,21.51,223.8,223.8,0,0,0-24,28.75A216.55,216.55,0,0,0,7.1,218.16c-.12.55-.22,1.13-.34,1.69-.49,2.26-2.65,13.73-3,16.19h0A299.15,299.15,0,0,0,0,271.87v1.32c.26,142,115.58,256.88,257.57,256.62a257.09,257.09,0,0,0,252.84-213.2c.44-3.31.79-6.62,1.17-9.93a263.68,263.68,0,0,0-16.7-129Zm-25.5,13.18,0,.28Z"/><path class="cls-144" d="M257.56,223.87s-1.09.45-3.1,1.14c-5,8.48-22.88,24.69-29.7,24.65-73.07-.32-85.12,43.37-85.12,43.37A93.18,93.18,0,0,0,154,335a93.91,93.91,0,0,1-12.24-38.54s11.86-44.16,84.92-44.16c7.9,0,30.47-22,30.91-28.41Z"/><path class="cls-145" d="M469.47,191.21V191c0-.19,0-.3,0-.24s0,.14,0,.43q-2.59-6.43-5.53-12.72c-.66-1.4-1.32-2.72-2-4.09-1.29-2.65-2.57-5.3-3.91-7.79-.82-1.55-1.69-3-2.54-4.54-1.25-2.22-2.48-4.45-3.76-6.63-.94-1.56-1.9-3.06-2.86-4.58-1.25-2-2.5-4-3.77-5.91-1-1.53-2.06-3-3.08-4.5-1.28-1.84-2.55-3.68-3.86-5.48-1.07-1.48-2.17-2.93-3.26-4.38-1.32-1.73-2.6-3.46-3.92-5.15q-1.69-2.17-3.42-4.32c-1.32-1.65-2.65-3.31-4-4.93-1.17-1.42-2.34-2.83-3.53-4.24-.66-.76-1.28-1.54-1.92-2.3l.82,1C396.6,84.32,372.42,60.11,350.85,26q-3.12-4.86-6.06-9.83-1.52-2.6-2.83-5.3a53.34,53.34,0,0,1-3.53-9c-.05-.16-.13-.41-.16-.55s-.09-.39-.14-.59a.68.68,0,0,0-.58-.67,1,1,0,0,0-.49,0l-.12.08-.2.1a7.84,7.84,0,0,0-1.55,1.14l-.37.33a26,26,0,0,0-2,2.16l-.07.07C317.33,22,278,100.69,341.38,171.24c-59.33-69.82-21.94-145.27-5.69-165A58.19,58.19,0,0,0,338.86,14c.88,1.81,1.82,3.57,2.83,5.3,2,3.4,4,6.63,6.06,9.83C388,92.66,437.31,121.86,466.32,194.2a2.14,2.14,0,0,0,0-.42s0,.05,0,.24l0,.25a232.18,232.18,0,0,1-8,173.29,212.84,212.84,0,0,1-40.83,58.55,213.67,213.67,0,0,0,43.94-61.65,232.3,232.3,0,0,0,8-173.3Z"/><path class="cls-146" d="M336.78.22l.14-.15c-58.17,34-81.68,94.14-87.25,131.23A189.93,189.93,0,0,1,327.31,11.47,36.18,36.18,0,0,1,336.8.19Z"/><path class="cls-147" d="M400.84,347.48l.15-.33c2.27-5.41,32.8-81.28-25.47-134.88q-1.84-1.67-3.86-3.15c-.52-.39-1-.78-1.59-1.17a89.66,89.66,0,0,0-59.62-15.4h0q-1.19.15-2.34.36c91.41,45.66,68.16,201.58-56.18,199.26l1,.06c126.06,5,150.9-149.64,63.32-198.13a93.13,93.13,0,0,1,48.68,14.05c.55.37,1.1.74,1.63,1.12a46.55,46.55,0,0,1,4,3c60.33,51.32,32.79,128.31,30.72,133.81l-.13.34"/><path class="cls-148" d="M161.77,222.67A128.34,128.34,0,0,0,254.71,225a128.44,128.44,0,0,1-93.6-4.86,97.7,97.7,0,0,0-93.28,3l-.33.22h0l-.28.19-.21.14-.13.1h0l-.09.06h0l.12.29v0l.15.33v.07l.22.47v0c.52,1.1,1.09,2.17,1.69,3.23A65.72,65.72,0,0,0,127.49,262c-4.64,40.72,16.15,88,66.51,114.21-48.11-27.73-68.3-78-62.7-118-37.15-1-53.75-23.24-58.5-32.68a101.55,101.55,0,0,1,89-2.85Z"/><path class="cls-149" d="M171,164.78l-1.26-.74,1.32.88Zm-.27-.94a119,119,0,0,1-.42-61.67,187.4,187.4,0,0,0-59.48,45.12A193.83,193.83,0,0,1,165.05,109,120.58,120.58,0,0,0,170.71,163.84Z"/><path class="cls-150" d="M8.64,306.21l-.21-.74a236.46,236.46,0,0,1-6-26.17,110.76,110.76,0,0,1,0-33.12,218.93,218.93,0,0,0-2.35,25.7v1.33a256.82,256.82,0,0,0,172.5,242.51,259.83,259.83,0,0,1-164-209.53Z"/><path class="cls-151" d="M6.58,280.37c-4.5-20.68,4.64-60.55,4.75-61.11a216.39,216.39,0,0,1,34.49-77.77v0a225.32,225.32,0,0,1,24-28.76,187.23,187.23,0,0,1,25.12-21.5c.36-.23.72-.45,1.09-.66-.1,19.53,1,52.49,10.06,63.29h.12c1.24-.07,38.65-1.72,57.79,9.94,2.13,1.32,3.88,2.37,5.44,3.38a78.69,78.69,0,0,1,6.82,4.84c4,3.22,8.57,7.52,18.17,16.44,13.91,12.92,44.17,25.77,57.26,31.9-12.75-6.42-42.82-20.14-56.38-33.49-9.32-9.18-13.75-13.59-17.66-16.91a76.9,76.9,0,0,0-6.63-5c-1.53-1-3.24-2.17-5.3-3.52-18.74-12.18-56-11.5-57.26-11.48h-.12c-9.31-11.78-9.51-48.31-9-61.28a12.46,12.46,0,0,1,0-1.4v-.84a3.89,3.89,0,0,1,0-.78.2.2,0,0,0-.11,0h-.23l-.15.05-.21.08-.21.08-.24.12-.27.12-.26.14-.32.15-.26.14-.39.2-.22.12q-2.9,1.59-5.72,3.31a187.23,187.23,0,0,0-25.12,21.5,224.84,224.84,0,0,0-24,28.87v0A216.46,216.46,0,0,0,7.19,218.25c-.12.56-9.28,40.41-4.75,61.12C19.32,379,98.76,458.56,196.4,482.14,100.68,457.32,23.24,378.6,6.54,280.36Z"/><path class="cls-152" d="M495,177.76a157.25,157.25,0,0,0-45.11-60.94l-.45-.33-1.53-1c-.19-.14-.38-.26-.57-.38l-1.44-.9-.55-.33c-.63-.36-1.27-.71-1.91-1,.69,1.35,1.36,2.71,2,4.07l1.23,2.54a263.57,263.57,0,0,1,22.74,71.28l0,.43c9.12,59.47-21.16,117.05-68.49,156.07l-.15.33C342,395.37,284.76,400.59,246.41,394.93c38.23,7.15,98.5,4.13,160.64-46.37l.14-.33c47.34-39,77.64-96.58,68.49-156.07l-.05-.43a258.17,258.17,0,0,0-18.74-62.57A170.15,170.15,0,0,1,485,169.22a255.79,255.79,0,0,1,23.75,125.87c-.2,3.27-.36,6.55-.61,9.8a255.91,255.91,0,0,1-241.2,223.84,262.59,262.59,0,0,1-50.75-2.07C355.26,549,486.44,455.38,510.52,316.6c.43-3.31.78-6.59,1.16-9.9a263.66,263.66,0,0,0-16.67-129Zm-25.45,13.46v0Z"/><g class="cls-153"><g id="layer1"><path id="path3655" class="cls-154" d="M424,184.3c0,21.8-27.53,48.59-63.77,48.59s-83.35-22.37-83.35-44.17,29.38-39.48,65.62-39.48c27.68,0,64.48,25.45,78.53,28.31,1.1,2.38,1.9,4.07,3,6.75Z"/><path id="path3655-4-8" class="cls-155" d="M155,153.49c17.22-13.37,49.12-1.73,71.34,26.89s24.61,71,7.39,84.4-47.54-7.36-69.76-36c-17-21.86-5.63-57.29-12-70.14C152.86,157.09,153.93,155.23,155,153.49Z"/><path id="path3596" class="cls-156" d="M421,177.54c-9.74,0-84.94.4-149.75.09-24.16,7.11-44.1,18.44-54.5,40.55-7.42-6.31-56.68-58.72-61.77-64.59C198.63,95.66,258.64,90.22,270.3,90.22s98.26-12,150.69,87.32Z"/><path id="path3655-4" class="cls-157" d="M263.93,401.07c-17.38-13.15-20.27-51.38,1.6-80.27S322.6,272.19,340,285.34s10.36,54.2-11.51,83.1c-16.71,22.07-49.37,23.49-60.13,33a38.32,38.32,0,0,1-4.42-.33Z"/><path id="path3596-1" class="cls-158" d="M268.35,401.4c5-8.38,40.14-73.58,73.29-129.28,6.14-24.42,7.44-46.79-6.34-67,9.21-3.19,81-19.44,88.66-20.85,27.77,67,2,121.49-3.91,131.54S380.55,406.61,268.35,401.4Z"/><path id="path3596-1-7" class="cls-159" d="M152.06,158.6c4.83,8.47,42.74,73.41,74.8,129.73,18.22,17.4,38.51,27.11,62.86,25.09C288,323,266.59,393.74,264,401.09c-72-8.93-106.64-58.22-112.46-68.33S92.14,253.6,152.06,158.6Z"/><path id="path3645" class="cls-160" d="M343.47,245.33a63.56,63.56,0,1,1-63.56-63.82A63.69,63.69,0,0,1,343.47,245.33Z"/><path id="rect3782" class="cls-161" d="M328.5,213.2c25.77,23.78,22.3,41.11,14,61.2C338.17,243.45,339.24,229.29,328.5,213.2Z"/><path id="rect3782-4" class="cls-161" d="M242.09,303.25c-31.5-20.13-41.47-63.59-12.26-87.62C214.74,243.14,221.17,260.7,242.09,303.25Z"/><path class="cls-161" d="M280.28,89.76A156.33,156.33,0,1,0,436.6,246.09,156.33,156.33,0,0,0,280.28,89.76Zm0,301.15c-79.86,0-144.83-65-144.83-144.82s65-144.83,144.83-144.83,144.82,65,144.82,144.83S360.14,390.91,280.28,390.91Z"/></g></g></g></g></svg>